<svg width="195" height="109" viewBox="0 0 195 109" fill="none" xmlns="http://www.w3.org/2000/svg">
<path opacity="0.1" d="M108.565 14.8667C97.3151 14.8025 86.5316 11.9497 76.2222 8.79042C65.9127 5.63113 55.6948 2.1119 44.6761 0.565224C37.5895 -0.425506 29.5136 -0.395216 23.9064 2.98503C18.5111 6.23876 16.8736 11.67 16.0459 16.6931C15.4211 20.4725 15.0979 24.4425 17.1447 27.919C18.5649 30.3317 21.0301 32.3292 22.7591 34.6314C28.7721 42.641 24.9137 52.7888 18.8091 60.8982C15.9364 64.7026 12.6041 68.3465 10.4208 72.3736C8.23753 76.4007 7.29492 80.9819 9.38841 84.9858C11.464 88.9559 16.2506 91.8603 21.4071 93.8614C31.8818 97.9223 44.1303 98.8614 56.0593 99.273C82.4721 100.185 108.971 98.8774 135.398 97.5713C145.18 97.0866 155.003 96.5984 164.598 95.0766C169.927 94.2285 175.419 92.9509 179.232 90.098C184.08 86.4737 185.157 80.5115 181.746 76.1993C176.029 68.9631 160.671 67.5001 156.61 59.6848C154.373 55.3815 156.441 50.4795 159.439 46.3669C165.871 37.5448 176.818 29.676 177.162 19.7615C177.399 12.9511 171.88 6.26905 163.526 3.25053C154.757 0.0752034 142.745 0.78796 136.476 6.52564C130.026 12.4326 118.507 14.9237 108.565 14.8667Z" fill="#48B6FF"/>
<path d="M102.168 43.4678C102.168 43.4678 97.2343 34.7918 89.8012 32.2918C86.6773 31.2623 83.974 29.2553 82.0969 26.5719C81.2158 25.2913 80.4549 23.9332 79.8239 22.5146" stroke="#535461" stroke-width="2" stroke-miterlimit="10"/>
<path d="M75.152 20.9108C75.9977 21.7269 79.9423 22.5698 79.9423 22.5698C79.9423 22.5698 78.9745 18.6835 78.1289 17.8674C77.7222 17.4756 77.1754 17.2602 76.6087 17.2685C76.042 17.2769 75.5019 17.5083 75.1072 17.9119C74.7124 18.3155 74.4954 18.8582 74.5038 19.4206C74.5122 19.983 74.7454 20.5191 75.152 20.9108V20.9108Z" fill="#48B6FF"/>
<path d="M77.3909 27.9493C78.549 28.1774 82.323 26.7572 82.323 26.7572C82.323 26.7572 79.3659 24.0131 78.215 23.7851C77.6586 23.6766 77.0816 23.792 76.6109 24.1057C76.1401 24.4195 75.8143 24.906 75.705 25.4582C75.5957 26.0105 75.712 26.5832 76.0281 27.0503C76.3443 27.5175 76.8345 27.8409 77.3909 27.9493V27.9493Z" fill="#48B6FF"/>
<path d="M85.5064 35.5562C86.6214 35.1731 89.1566 32.0583 89.1566 32.0583C89.1566 32.0583 85.2245 31.1674 84.1095 31.5487C83.8407 31.6368 83.5922 31.7771 83.3785 31.9614C83.1648 32.1456 82.9901 32.3702 82.8646 32.622C82.739 32.8739 82.6652 33.1479 82.6473 33.4283C82.6295 33.7088 82.6679 33.9899 82.7605 34.2554C82.853 34.5209 82.9978 34.7656 83.1865 34.9751C83.3751 35.1846 83.6038 35.3548 83.8593 35.4758C84.1148 35.5968 84.392 35.6663 84.6747 35.6801C84.9575 35.6939 85.2402 35.6518 85.5064 35.5562V35.5562Z" fill="#48B6FF"/>
<path d="M92.9611 39.9432C94.1246 39.7526 97.1535 37.1065 97.1535 37.1065C97.1535 37.1065 93.4297 35.5669 92.2645 35.7576C91.7052 35.8492 91.2055 36.1577 90.8754 36.615C90.5453 37.0723 90.4117 37.641 90.504 38.1961C90.5964 38.7511 90.9072 39.247 91.368 39.5747C91.8288 39.9023 92.4018 40.0349 92.9611 39.9432Z" fill="#48B6FF"/>
<path d="M85.6015 23.7155C85.6015 24.888 83.4668 28.2843 83.4668 28.2843C83.4668 28.2843 81.3284 24.8898 81.3284 23.7173C81.3284 23.1549 81.5535 22.6156 81.9542 22.2179C82.3548 21.8203 82.8983 21.5969 83.465 21.5969C84.0316 21.5969 84.5751 21.8203 84.9757 22.2179C85.3764 22.6156 85.6015 23.1549 85.6015 23.7173V23.7155Z" fill="#48B6FF"/>
<path d="M94.2538 28.9543C93.8947 30.0733 90.8424 32.6802 90.8424 32.6802C90.8424 32.6802 89.8262 28.8046 90.1781 27.6909C90.3474 27.1541 90.7246 26.706 91.2268 26.4451C91.729 26.1843 92.3151 26.1322 92.856 26.3002C93.3969 26.4682 93.8485 26.8426 94.1113 27.341C94.3741 27.8394 94.4266 28.421 94.2574 28.9579L94.2538 28.9543Z" fill="#48B6FF"/>
<path d="M101.958 35.1909C101.802 36.3527 99.2272 39.4372 99.2272 39.4372C99.2272 39.4372 97.5664 35.7879 97.7226 34.6261C97.7981 34.0687 98.0936 33.5638 98.5441 33.2226C98.9947 32.8815 99.5633 32.7319 100.125 32.8068C100.687 32.8817 101.195 33.1749 101.539 33.6221C101.883 34.0692 102.034 34.6335 101.958 35.1909V35.1909Z" fill="#48B6FF"/>
<path opacity="0.25" d="M75.152 20.9108C75.9977 21.7269 79.9423 22.5698 79.9423 22.5698C79.9423 22.5698 78.9745 18.6835 78.1289 17.8674C77.7222 17.4756 77.1754 17.2602 76.6087 17.2685C76.042 17.2769 75.5019 17.5083 75.1072 17.9119C74.7124 18.3155 74.4954 18.8582 74.5038 19.4206C74.5122 19.983 74.7454 20.5191 75.152 20.9108V20.9108Z" fill="black"/>
<path opacity="0.25" d="M77.3909 27.9493C78.549 28.1774 82.323 26.7572 82.323 26.7572C82.323 26.7572 79.3659 24.0131 78.215 23.7851C77.6586 23.6766 77.0816 23.792 76.6109 24.1057C76.1401 24.4195 75.8143 24.906 75.705 25.4582C75.5957 26.0105 75.712 26.5832 76.0281 27.0503C76.3443 27.5175 76.8345 27.8409 77.3909 27.9493V27.9493Z" fill="black"/>
<path opacity="0.25" d="M85.5064 35.5562C86.6214 35.1731 89.1566 32.0583 89.1566 32.0583C89.1566 32.0583 85.2245 31.1674 84.1095 31.5487C83.8407 31.6368 83.5922 31.7771 83.3785 31.9614C83.1648 32.1456 82.9901 32.3702 82.8646 32.622C82.739 32.8739 82.6652 33.1479 82.6473 33.4283C82.6295 33.7088 82.6679 33.9899 82.7605 34.2554C82.853 34.5209 82.9978 34.7656 83.1865 34.9751C83.3751 35.1846 83.6038 35.3548 83.8593 35.4758C84.1148 35.5968 84.392 35.6663 84.6747 35.6801C84.9575 35.6939 85.2402 35.6518 85.5064 35.5562V35.5562Z" fill="black"/>
<path opacity="0.25" d="M92.9611 39.9432C94.1246 39.7526 97.1535 37.1065 97.1535 37.1065C97.1535 37.1065 93.4297 35.5669 92.2645 35.7576C91.7052 35.8492 91.2055 36.1577 90.8754 36.615C90.5453 37.0723 90.4117 37.641 90.504 38.1961C90.5964 38.7511 90.9072 39.247 91.368 39.5747C91.8288 39.9023 92.4018 40.0349 92.9611 39.9432Z" fill="black"/>
<path opacity="0.25" d="M85.6015 23.7155C85.6015 24.888 83.4668 28.2843 83.4668 28.2843C83.4668 28.2843 81.3284 24.8898 81.3284 23.7173C81.3284 23.1549 81.5535 22.6156 81.9542 22.2179C82.3548 21.8203 82.8983 21.5969 83.465 21.5969C84.0316 21.5969 84.5751 21.8203 84.9757 22.2179C85.3764 22.6156 85.6015 23.1549 85.6015 23.7173V23.7155Z" fill="black"/>
<path opacity="0.25" d="M94.2538 28.9543C93.8947 30.0733 90.8424 32.6802 90.8424 32.6802C90.8424 32.6802 89.8262 28.8046 90.1781 27.6909C90.3474 27.1541 90.7246 26.706 91.2268 26.4451C91.729 26.1843 92.3151 26.1322 92.856 26.3002C93.3969 26.4682 93.8485 26.8426 94.1113 27.341C94.3741 27.8394 94.4266 28.421 94.2574 28.9579L94.2538 28.9543Z" fill="black"/>
<path opacity="0.25" d="M101.958 35.1909C101.802 36.3527 99.2272 39.4372 99.2272 39.4372C99.2272 39.4372 97.5664 35.7879 97.7226 34.6261C97.7981 34.0687 98.0936 33.5638 98.5441 33.2226C98.9947 32.8815 99.5633 32.7319 100.125 32.8068C100.687 32.8817 101.195 33.1749 101.539 33.6221C101.883 34.0692 102.034 34.6335 101.958 35.1909V35.1909Z" fill="black"/>
<path d="M101.886 43.2967C101.886 43.2967 100.917 33.3787 95.1444 28.1043C92.7081 25.9076 91.0556 22.9858 90.435 19.7776C90.1527 18.2522 90.012 16.7044 90.0148 15.1536" stroke="#535461" stroke-width="2" stroke-miterlimit="10"/>
<path d="M86.397 11.8072C86.8369 12.8941 90.0992 15.2516 90.0992 15.2516C90.0992 15.2516 90.8012 11.3082 90.3595 10.2213C90.2577 9.95873 90.1043 9.71891 89.9082 9.51578C89.7121 9.31265 89.4773 9.15027 89.2173 9.03812C88.9573 8.92596 88.6775 8.86626 88.3941 8.86249C88.1106 8.85873 87.8293 8.91097 87.5664 9.01619C87.3035 9.1214 87.0643 9.27747 86.8628 9.47532C86.6613 9.67317 86.5015 9.90883 86.3927 10.1686C86.2838 10.4283 86.2281 10.707 86.2289 10.9883C86.2296 11.2696 86.2868 11.548 86.397 11.8072Z" fill="#48B6FF"/>
<path d="M85.5638 19.1361C86.5298 19.8096 90.557 20.027 90.557 20.027C90.557 20.027 88.9877 16.3385 88.0236 15.665C87.56 15.3413 86.9859 15.2135 86.4274 15.31C85.869 15.4064 85.372 15.719 85.0458 16.179C84.7197 16.6391 84.591 17.2089 84.6881 17.7631C84.7853 18.3174 85.1003 18.8106 85.5638 19.1343V19.1361Z" fill="#48B6FF"/>
<path d="M89.8837 29.3623C91.0597 29.4604 94.6488 27.6304 94.6488 27.6304C94.6488 27.6304 91.417 25.2337 90.241 25.1357C89.6762 25.0885 89.1157 25.2658 88.6826 25.6287C88.2496 25.9916 87.9796 26.5104 87.932 27.0708C87.8844 27.6313 88.0631 28.1876 88.4287 28.6174C88.7944 29.0471 89.3171 29.3151 89.8819 29.3623H89.8837Z" fill="#48B6FF"/>
<path d="M94.9074 36.3687C96.0493 36.6628 99.8987 35.4618 99.8987 35.4618C99.8987 35.4618 97.1212 32.5573 95.9793 32.2544C95.7031 32.1679 95.412 32.138 95.1238 32.1666C94.8356 32.1952 94.5562 32.2817 94.3027 32.4208C94.0492 32.5599 93.8269 32.7486 93.6492 32.9756C93.4715 33.2026 93.3421 33.4631 93.269 33.7413C93.1959 34.0195 93.1805 34.3095 93.2239 34.5937C93.2672 34.8779 93.3683 35.1504 93.521 35.3947C93.6738 35.6389 93.8749 35.8498 94.1123 36.0145C94.3497 36.1792 94.6184 36.2943 94.902 36.3527L94.9074 36.3687Z" fill="#48B6FF"/>
<path d="M94.8068 18.5748C94.3293 19.6439 90.9897 21.8927 90.9897 21.8927C90.9897 21.8927 90.4206 17.9297 90.8981 16.8588C91.1274 16.3444 91.5532 15.9415 92.0819 15.7386C92.6105 15.5358 93.1987 15.5497 93.717 15.7772C94.2353 16.0048 94.6413 16.4273 94.8457 16.952C95.0501 17.4766 95.0361 18.0604 94.8068 18.5748V18.5748Z" fill="#48B6FF"/>
<path d="M100.576 26.8445C99.7964 27.723 95.9326 28.8759 95.9326 28.8759C95.9326 28.8759 96.5844 24.9254 97.369 24.0452C97.5542 23.8359 97.7791 23.6648 98.0309 23.5418C98.2828 23.4187 98.5565 23.3461 98.8366 23.3281C99.1167 23.3101 99.3976 23.3469 99.6634 23.4367C99.9291 23.5264 100.174 23.6672 100.385 23.851C100.596 24.0348 100.769 24.258 100.893 24.5079C101.017 24.7578 101.09 25.0295 101.108 25.3075C101.126 25.5855 101.089 25.8643 100.999 26.128C100.908 26.3918 100.766 26.6352 100.581 26.8445H100.576Z" fill="#48B6FF"/>
<path d="M105.073 35.6435C104.456 36.6414 100.843 38.4268 100.843 38.4268C100.843 38.4268 100.813 34.4229 101.43 33.4233C101.735 32.9609 102.209 32.6347 102.752 32.5138C103.295 32.393 103.865 32.4872 104.339 32.7762C104.813 33.0653 105.155 33.5266 105.292 34.062C105.43 34.5974 105.351 35.1648 105.073 35.6435V35.6435Z" fill="#48B6FF"/>
<path d="M39.2754 49.8131L96.4748 29.708V99.1643L39.2754 97.9812V49.8131Z" fill="white"/>
<path opacity="0.2" d="M39.2754 49.8131L96.4748 29.708V99.1643L39.2754 97.9812V49.8131Z" fill="#48B6FF"/>
<path d="M0 61.2831L32.6323 49.8131V97.9812H0V61.2831Z" fill="white"/>
<path opacity="0.2" d="M0 61.2831L32.6323 49.8131V97.9812H0V61.2831Z" fill="#48B6FF"/>
<path d="M96.4749 29.708L153.672 49.8131V97.9812L96.4749 99.1643V29.708Z" fill="white"/>
<path opacity="0.5" d="M96.4749 29.708L153.672 49.8131V97.9812L96.4749 99.1643V29.708Z" fill="#48B6FF"/>
<path d="M193.539 61.4275L160.495 49.8131V97.9812H193.539V61.4275Z" fill="white"/>
<path opacity="0.5" d="M193.539 61.4275L160.495 49.8131V97.9812H193.539V61.4275Z" fill="#48B6FF"/>
<path d="M19.0156 69.6455C18.784 69.6455 18.5955 69.9591 18.5955 70.3458V79.0628C18.6077 79.9228 18.4035 80.7723 18.0012 81.5342C17.626 82.1882 17.0514 82.6034 16.502 82.6034H16.1429C15.6043 82.6034 15.0764 82.2042 14.6635 81.5004C14.2329 80.7406 14.0084 79.8828 14.0117 79.0111V67.7638C14.0005 67.1421 14.162 66.5293 14.4785 65.9926C14.7784 65.5222 15.1716 65.262 15.5845 65.262C15.9975 65.262 16.3763 65.5222 16.6618 65.989C16.9646 66.534 17.1169 67.1487 17.1035 67.7709V78.2734C17.1035 79.0396 16.7444 79.7167 16.3207 79.7167C15.9616 79.7167 15.5594 79.1394 15.5594 78.2734V72.2756C15.5594 71.8907 15.3709 71.5753 15.1393 71.5753C14.9076 71.5753 14.7173 71.8907 14.7173 72.2756V78.2663C14.7173 79.8593 15.4068 81.0603 16.3207 81.0603C16.7659 81.0603 17.1771 80.7859 17.4733 80.2852C17.8047 79.6643 17.9674 78.9685 17.9455 78.2663V67.7638C17.964 66.7947 17.7217 65.8382 17.2435 64.993C16.7983 64.2535 16.204 63.849 15.5702 63.849C14.9364 63.849 14.3421 64.2535 13.8914 64.993C13.412 65.8396 13.1702 66.7983 13.1912 67.7692V79.0147C13.1912 80.303 13.5216 81.6109 14.071 82.5125C14.6204 83.4142 15.3637 83.938 16.125 83.938H16.493C17.2381 83.938 17.985 83.4141 18.5416 82.4983C18.8298 82.0146 19.0468 81.4926 19.1862 80.948C19.3471 80.3311 19.4279 79.6964 19.4268 79.0592V70.328C19.4268 69.9413 19.2472 69.6277 19.0084 69.6277L19.0156 69.6455Z" fill="white"/>
<path d="M99.3978 89.0538C99.3978 89.0538 100.462 90.4366 98.9058 92.5232C97.3492 94.6098 96.0636 96.3738 96.5843 97.6711C96.5843 97.6711 98.9328 93.7954 100.843 93.7509C102.753 93.7064 101.498 91.3845 99.3978 89.0538Z" fill="#48B6FF"/>
<path opacity="0.1" d="M99.3978 89.0538C99.4903 89.188 99.5634 89.3344 99.6151 89.4886C101.479 91.6625 102.472 93.6903 100.68 93.742C99.01 93.7901 97.0081 96.7516 96.5287 97.5C96.5434 97.5605 96.562 97.62 96.5843 97.6782C96.5843 97.6782 98.9328 93.8026 100.843 93.758C102.754 93.7135 101.499 91.3845 99.3978 89.0538Z" fill="black"/>
<path d="M101.376 90.8162C101.376 91.3026 101.321 91.6964 101.252 91.6964C101.184 91.6964 101.13 91.3026 101.13 90.8162C101.13 90.3297 101.199 90.5578 101.267 90.5578C101.335 90.5578 101.376 90.3297 101.376 90.8162Z" fill="#FFD037"/>
<path d="M102.055 91.3971C101.626 91.6288 101.251 91.7696 101.218 91.7108C101.186 91.652 101.507 91.415 101.937 91.1762C102.366 90.9374 102.197 91.1138 102.229 91.1762C102.262 91.2386 102.486 91.1637 102.055 91.3971Z" fill="#FFD037"/>
<path d="M93.7726 89.0538C93.7726 89.0538 92.7079 90.4366 94.2646 92.5232C95.8212 94.6098 97.1032 96.3738 96.5843 97.6711C96.5843 97.6711 94.2376 93.7954 92.3255 93.7509C90.4133 93.7064 91.6702 91.3845 93.7726 89.0538Z" fill="#48B6FF"/>
<path opacity="0.1" d="M93.7726 89.0538C93.6802 89.188 93.6071 89.3344 93.5554 89.4886C91.6899 91.6625 90.697 93.6903 92.4907 93.742C94.1586 93.7901 96.1624 96.7516 96.6418 97.5C96.6264 97.5605 96.6072 97.62 96.5843 97.6782C96.5843 97.6782 94.2376 93.8026 92.3255 93.758C90.4133 93.7135 91.6702 91.3845 93.7726 89.0538Z" fill="black"/>
<path d="M91.7941 90.8162C91.7941 91.3026 91.8479 91.6964 91.9162 91.6964C91.9844 91.6964 92.0401 91.3026 92.0401 90.8162C92.0401 90.3297 91.9701 90.5578 91.9036 90.5578C91.8372 90.5578 91.7941 90.3297 91.7941 90.8162Z" fill="#FFD037"/>
<path d="M91.1137 91.3971C91.5446 91.6288 91.9198 91.7696 91.9521 91.7108C91.9844 91.652 91.6631 91.415 91.234 91.1762C90.8048 90.9374 90.9736 91.1138 90.9413 91.1762C90.909 91.2386 90.6774 91.1637 91.1137 91.3971Z" fill="#FFD037"/>
<path opacity="0.1" d="M96.5843 108.241C102.732 108.241 107.716 107.483 107.716 106.547C107.716 105.611 102.732 104.852 96.5843 104.852C90.4364 104.852 85.4525 105.611 85.4525 106.547C85.4525 107.483 90.4364 108.241 96.5843 108.241Z" fill="#48B6FF"/>
<path d="M102.315 95.8091L102.262 96.2403L102.186 96.8497L102.156 97.1027L102.08 97.7139L102.048 97.9669L101.974 98.5763L101.121 105.508C101.046 106.126 100.028 106.609 98.7981 106.609H94.3723C93.1424 106.609 92.1262 106.126 92.049 105.508L91.1962 98.5763L91.1208 97.9669L91.0902 97.7139L91.0148 97.1027L90.9825 96.8497L90.9089 96.2403L90.855 95.8091C90.8119 95.4527 91.3631 95.1622 92.0598 95.1622H101.112C101.809 95.1622 102.359 95.458 102.315 95.8091Z" fill="#444053"/>
<path d="M102.262 96.2402L102.186 96.8496H90.9825L90.9089 96.2402H102.262Z" fill="#9D9CB5"/>
<path d="M102.156 97.1045L102.08 97.7139H91.0903L91.0149 97.1045H102.156Z" fill="#9D9CB5"/>
<path d="M102.048 97.9686L101.974 98.578H91.1963L91.1208 97.9686H102.048Z" fill="#9D9CB5"/>
<path d="M74.942 58.1702L73.2273 60.4314C73.213 60.4525 73.1928 60.469 73.1692 60.4788C73.1456 60.4886 73.1196 60.4913 73.0945 60.4867L71.3224 60.0661C71.2889 60.0535 71.2596 60.0318 71.238 60.0034C71.2164 59.975 71.2033 59.9412 71.2003 59.9058L70.8843 57.5768C70.8748 57.5144 70.8896 57.4507 70.9256 57.3986L72.6366 55.141C72.7007 55.0504 72.7317 54.9408 72.7245 54.8303C72.7173 54.7198 72.6724 54.6151 72.5971 54.5334C72.2731 54.2123 71.8407 54.0219 71.3834 53.9988C71.3584 53.996 71.3331 53.996 71.308 53.9988C70.8304 54.0344 69.807 54.3855 69.017 55.4884C68.2504 56.5576 67.4478 58.5284 68.1588 60.7308C68.2432 60.9963 68.3383 61.3473 68.0547 61.7197C67.771 62.0921 60.433 71.1637 60.433 71.1637C59.7453 71.9424 59.7956 73.3822 60.433 74.2197C60.5685 74.4109 60.7469 74.5683 60.954 74.6796C61.1612 74.7909 61.3915 74.8531 61.627 74.8612C61.8562 74.857 62.0806 74.7943 62.2784 74.6791C62.4762 74.564 62.6407 74.4002 62.7563 74.2036C62.7563 74.2036 69.6041 64.6171 69.9381 64.1805C69.983 64.1075 70.0449 64.0462 70.1187 64.0019C70.1924 63.9575 70.2758 63.9314 70.3618 63.9257C70.4804 63.9318 70.5943 63.9734 70.6886 64.0451C71.0528 64.292 71.4846 64.422 71.9256 64.4175C72.949 64.4175 74.0245 63.7938 74.6816 62.9314C75.3592 62.0643 75.7533 61.0122 75.811 59.9164C75.8337 59.3184 75.6929 58.7255 75.4034 58.2005C75.3843 58.1575 75.3539 58.1204 75.3154 58.093C75.2768 58.0657 75.2316 58.0491 75.1844 58.0451C75.1372 58.0411 75.0898 58.0498 75.0472 58.0702C75.0045 58.0907 74.9682 58.1221 74.942 58.1613V58.1702ZM62.0148 73.1292C61.9734 73.1917 61.9171 73.243 61.8508 73.2785C61.7845 73.314 61.7104 73.3326 61.635 73.3326C61.5597 73.3326 61.4856 73.314 61.4193 73.2785C61.353 73.243 61.2966 73.1917 61.2553 73.1292C61.155 72.9818 61.1013 72.8081 61.1013 72.6302C61.1013 72.4524 61.155 72.2786 61.2553 72.1313C61.2966 72.0688 61.353 72.0175 61.4193 71.982C61.4856 71.9465 61.5597 71.9279 61.635 71.9279C61.7104 71.9279 61.7845 71.9465 61.8508 71.982C61.9171 72.0175 61.9734 72.0688 62.0148 72.1313C62.1154 72.2785 62.1693 72.4521 62.1696 72.63C62.17 72.8078 62.1166 72.9817 62.0166 73.1292H62.0148Z" fill="white"/>
<path d="M135.648 62.5411C135.174 57.1028 131.459 52.8655 126.94 52.8655C123.949 52.8655 121.315 54.7169 119.733 57.5447C119.248 57.2948 118.709 57.1635 118.162 57.1616C115.878 57.1616 114.033 59.6563 113.991 62.4681C111.657 63.3875 110.12 66.2101 110.12 69.1716C110.12 72.8013 112.497 76.0051 115.428 76.0051H134.718C137.65 76.0051 140.027 72.7977 140.027 69.1716C140.027 65.9392 138.135 63.09 135.648 62.5411V62.5411ZM131.29 61.2938L123.482 71.0051C123.381 71.1281 123.123 71.4025 122.803 71.4025C122.666 71.3867 122.535 71.3417 122.417 71.2707C122.299 71.1996 122.198 71.1042 122.121 70.9909L118.844 66.9371C118.799 66.8779 118.775 66.8056 118.775 66.7313C118.775 66.6569 118.799 66.5846 118.844 66.5254L119.884 65.2389C119.903 65.2129 119.927 65.1915 119.955 65.1764C119.984 65.1613 120.015 65.1528 120.047 65.1516C120.079 65.1526 120.111 65.1611 120.139 65.1762C120.168 65.1914 120.192 65.2128 120.211 65.2389L122.805 68.4463L129.929 59.56C129.948 59.5343 129.973 59.5131 130.001 59.498C130.029 59.4829 130.061 59.4743 130.093 59.4727C130.125 59.4729 130.157 59.4809 130.185 59.4962C130.214 59.5114 130.238 59.5333 130.256 59.56L131.278 60.8697C131.328 60.9276 131.356 61.0007 131.359 61.0769C131.361 61.1531 131.337 61.2278 131.29 61.2885V61.2938Z" fill="white"/>
<path d="M182.935 71.153C183.915 71.153 184.71 70.1008 184.71 68.8027C184.71 67.5047 183.915 66.4524 182.935 66.4524C181.954 66.4524 181.159 67.5047 181.159 68.8027C181.159 70.1008 181.954 71.153 182.935 71.153Z" fill="white"/>
<path d="M182.935 72.06C182.739 72.0591 182.544 72.0278 182.358 71.9673L180.606 74.3319C180.591 74.3518 180.583 74.3758 180.583 74.4005C180.583 74.4252 180.591 74.4492 180.606 74.4691L183.391 78.3893C183.483 78.5219 183.532 78.6791 183.532 78.8401C183.532 79.0011 183.483 79.1583 183.391 79.2909C183.351 79.3444 183.3 79.3883 183.241 79.4192C183.182 79.4501 183.116 79.4672 183.049 79.4691C182.983 79.4673 182.918 79.4503 182.859 79.4194C182.8 79.3885 182.749 79.3445 182.71 79.2909L179.936 75.3707C179.93 75.3619 179.922 75.3547 179.913 75.3497C179.903 75.3447 179.893 75.342 179.882 75.342C179.872 75.342 179.861 75.3447 179.852 75.3497C179.842 75.3547 179.834 75.3619 179.828 75.3707L179.152 76.2831C178.586 77.0421 177.835 76.9281 177.028 76.9335C176.22 76.9388 175.435 76.4826 174.86 75.7129L174.21 74.8362C174.205 74.8273 174.197 74.8201 174.187 74.8151C174.178 74.8101 174.167 74.8075 174.157 74.8075C174.146 74.8075 174.135 74.8101 174.126 74.8151C174.117 74.8201 174.109 74.8273 174.103 74.8362L171.329 78.7563C171.289 78.8099 171.238 78.8538 171.179 78.8847C171.12 78.9155 171.054 78.9326 170.988 78.9345C170.921 78.9327 170.856 78.9157 170.797 78.8848C170.738 78.8539 170.687 78.8099 170.648 78.7563C170.556 78.6237 170.507 78.4665 170.507 78.3055C170.507 78.1445 170.556 77.9873 170.648 77.8547L173.433 73.9345C173.445 73.9137 173.452 73.89 173.452 73.8659C173.452 73.8418 173.445 73.8181 173.433 73.7973L169.449 68.4303C169.4 68.3661 169.323 68.4107 169.323 68.498V79.2392C169.323 80.1017 169.862 80.8073 170.506 80.8073L183.527 81.3419C184.179 81.3419 184.71 80.6291 184.71 79.7738V71.055C184.263 71.6733 183.635 72.06 182.935 72.06Z" fill="white"/>
<path d="M180.475 68.8027C180.473 68.2654 180.576 67.7329 180.778 67.2346L170.503 66.7001C170.363 66.7035 170.226 66.7359 170.1 66.7951C169.974 66.8543 169.862 66.9391 169.77 67.044L175.575 74.8665C175.733 75.1054 175.947 75.303 176.199 75.4426C176.451 75.5822 176.732 75.6596 177.02 75.6683C177.559 75.6683 178.083 75.9196 178.467 75.401L181.444 71.3882C180.854 70.7913 180.475 69.8558 180.475 68.8027V68.8027Z" fill="white"/>
<path d="M194.96 96.9762C194.96 96.9762 192.862 96.8514 193.109 98.309C193.096 98.3825 193.106 98.4583 193.138 98.5257C193.17 98.5932 193.223 98.6489 193.289 98.685C193.289 98.685 193.289 98.5763 193.504 98.6137C193.58 98.6258 193.656 98.6294 193.732 98.6244C193.835 98.6166 193.932 98.5766 194.011 98.5104V98.5104C194.011 98.5104 194.6 98.268 194.829 97.3112C194.829 97.3112 195 97.1027 194.993 97.0492L194.634 97.1989C194.701 97.3451 194.71 97.5114 194.659 97.664C194.659 97.664 194.648 97.2078 194.58 97.2185C194.566 97.2185 194.4 97.3076 194.4 97.3076C194.4 97.3076 194.609 97.7477 194.452 98.0685C194.452 98.0685 194.512 97.5339 194.336 97.3397L194.086 97.484C194.086 97.484 194.33 97.9384 194.165 98.3108C194.165 98.3108 194.208 97.7406 194.034 97.5179L193.808 97.6961C193.808 97.6961 194.038 98.1469 193.898 98.4551C193.898 98.4551 193.88 97.7905 193.759 97.7424C193.674 97.8143 193.597 97.8963 193.531 97.9865C193.531 97.9865 193.688 98.3126 193.591 98.4837C193.591 98.4837 193.531 98.0417 193.483 98.04C193.38 98.1895 193.306 98.357 193.266 98.5335C193.276 98.3477 193.335 98.1678 193.436 98.0115C193.323 98.0327 193.218 98.0866 193.135 98.1665C193.135 98.1665 193.165 97.9598 193.494 97.9402C193.553 97.8544 193.621 97.7755 193.698 97.705C193.526 97.6902 193.353 97.7102 193.188 97.7638C193.188 97.7638 193.368 97.5678 193.758 97.6569L193.98 97.4787C193.783 97.4467 193.582 97.4467 193.384 97.4787C193.384 97.4787 193.589 97.3005 194.039 97.4323L194.284 97.288C194.097 97.2472 193.906 97.2304 193.714 97.2381C193.921 97.1613 194.15 97.1651 194.354 97.2488L194.533 97.1722C194.533 97.1722 194.271 97.1205 194.196 97.1134C194.12 97.1063 194.115 97.0831 194.115 97.0831C194.28 97.0563 194.45 97.0754 194.605 97.1383C194.728 97.0947 194.847 97.0404 194.96 96.9762Z" fill="#48B6FF"/>
<path opacity="0.1" d="M193.515 99.0609C194.335 99.0609 195 98.9493 195 98.8115C195 98.6737 194.335 98.562 193.515 98.562C192.695 98.562 192.03 98.6737 192.03 98.8115C192.03 98.9493 192.695 99.0609 193.515 99.0609Z" fill="#48B6FF"/>
<path d="M162.635 97.0367C162.635 97.0367 160.104 96.8853 160.402 98.6405C160.386 98.7297 160.4 98.8216 160.44 98.9029C160.48 98.9842 160.546 99.0508 160.626 99.0931C160.626 99.0931 160.626 98.963 160.887 99.0075C160.977 99.0228 161.07 99.027 161.161 99.02C161.286 99.0121 161.404 98.9639 161.499 98.8828V98.8828C161.499 98.8828 162.217 98.5906 162.486 97.4359C162.486 97.4359 162.693 97.1846 162.684 97.1187L162.256 97.2969C162.338 97.4728 162.349 97.6728 162.287 97.8564C162.287 97.8564 162.274 97.3076 162.192 97.3218C162.176 97.3218 161.969 97.427 161.969 97.427C161.969 97.427 162.221 97.9615 162.032 98.3482C162.032 98.3482 162.104 97.6907 161.89 97.4573L161.59 97.6355C161.59 97.6355 161.883 98.1861 161.686 98.6369C161.686 98.6369 161.736 97.9473 161.528 97.6782L161.255 97.8903C161.255 97.8903 161.531 98.4248 161.362 98.8044C161.362 98.8044 161.341 98.0025 161.195 97.9419C161.092 98.0284 161 98.1271 160.921 98.236C160.921 98.236 161.1 98.6298 160.993 98.8383C160.993 98.8383 160.921 98.3037 160.861 98.3037C160.738 98.485 160.649 98.6873 160.599 98.9006C160.611 98.6763 160.682 98.4589 160.804 98.2698C160.67 98.2941 160.545 98.3559 160.445 98.448C160.445 98.448 160.483 98.1968 160.869 98.1754C160.94 98.0712 161.023 97.9756 161.116 97.8903C160.908 97.8726 160.699 97.8968 160.501 97.9615C160.501 97.9615 160.705 97.7246 161.186 97.8315L161.456 97.6141C161.218 97.5758 160.975 97.5758 160.738 97.6141C160.738 97.6141 160.984 97.4056 161.529 97.5571L161.822 97.3789C161.596 97.3294 161.365 97.3096 161.134 97.3201C161.134 97.3201 161.405 97.1739 161.908 97.3307L162.116 97.2381C162.116 97.2381 161.802 97.1775 161.709 97.1668C161.616 97.1561 161.612 97.1312 161.612 97.1312C161.812 97.0985 162.017 97.1214 162.204 97.1971C162.353 97.1567 162.497 97.103 162.635 97.0367V97.0367Z" fill="#48B6FF"/>
<path opacity="0.1" d="M160.892 99.5546C161.882 99.5546 162.684 99.4197 162.684 99.2534C162.684 99.0871 161.882 98.9523 160.892 98.9523C159.902 98.9523 159.1 99.0871 159.1 99.2534C159.1 99.4197 159.902 99.5546 160.892 99.5546Z" fill="#48B6FF"/>
<path d="M3.79055 100.062C3.76928 100.068 3.74686 100.068 3.72559 100.062C3.74706 100.058 3.76908 100.058 3.79055 100.062Z" fill="#444053"/>
<path opacity="0.1" d="M6.72755 95.5203C6.59569 95.4288 6.43954 95.378 6.27869 95.3742C6.44159 95.3644 6.60213 95.4167 6.72755 95.5203V95.5203Z" fill="black"/>
<path opacity="0.1" d="M6.60546 94.9929C6.72391 94.9938 6.83991 95.0264 6.94121 95.0874L6.82989 95.0553C6.75632 95.032 6.6805 95.0165 6.60366 95.009C6.56057 95.009 6.51569 95.009 6.4726 95.009C6.4295 95.009 6.37205 94.9965 6.32178 94.9947C6.40975 94.9947 6.5085 94.9894 6.60546 94.9929Z" fill="black"/>
<path opacity="0.1" d="M7.00944 95.2441C7.04715 95.2441 7.09203 95.2673 7.09922 95.3047C7.00524 95.2601 6.90726 95.2243 6.80656 95.1978C6.7509 95.18 6.58033 95.1051 6.54083 95.1568C6.68267 95.1978 6.84606 95.2121 7.00944 95.2441Z" fill="black"/>
<path opacity="0.1" d="M9.40817 90.6095C9.45809 90.6158 9.50662 90.6303 9.5518 90.6523C9.58771 90.6701 9.61824 90.6986 9.65414 90.7182C9.6951 90.7416 9.74154 90.7539 9.7888 90.7539C9.73617 90.7565 9.68344 90.7565 9.6308 90.7539C9.59797 90.7561 9.56502 90.7518 9.53385 90.7414C9.50429 90.7276 9.47655 90.7102 9.45126 90.6897C9.41904 90.666 9.38408 90.6463 9.34712 90.6309C9.31839 90.6202 9.28787 90.6166 9.2771 90.5881C9.3213 90.5917 9.36514 90.5989 9.40817 90.6095V90.6095Z" fill="black"/>
<path opacity="0.1" d="M9.24839 78.5906L9.05627 78.4517C9.07695 78.4584 9.09682 78.4674 9.11552 78.4784C9.15593 78.5001 9.19235 78.5284 9.22325 78.5621L9.2843 78.6174L9.24839 78.5906Z" fill="black"/>
</svg>
