<svg width="160" height="92" viewBox="0 0 160 92" fill="none" xmlns="http://www.w3.org/2000/svg">
<g clip-path="url(#clip0)">
<path d="M34.6676 81.6642C39.2631 81.6642 42.9885 77.9361 42.9885 73.3372C42.9885 68.7383 39.2631 65.0102 34.6676 65.0102C30.0721 65.0102 26.3467 68.7383 26.3467 73.3372C26.3467 77.9361 30.0721 81.6642 34.6676 81.6642Z" fill="#F2F2F2"/>
<path d="M36.0206 80.4456C40.6161 80.4456 44.3415 76.7175 44.3415 72.1186C44.3415 67.5197 40.6161 63.7916 36.0206 63.7916C31.4251 63.7916 27.6997 67.5197 27.6997 72.1186C27.6997 76.7175 31.4251 80.4456 36.0206 80.4456Z" fill="#48B6FF"/>
<path d="M145.674 62.9049H42.7218V63.186H145.674V62.9049Z" fill="#3F3D56"/>
<path d="M96.0408 2.62166H59.4992V1.86795H42.9298V2.62166H6.23754C5.91295 2.62166 5.59153 2.68564 5.29164 2.80995C4.99175 2.93425 4.71927 3.11646 4.48974 3.34615C4.26022 3.57584 4.07815 3.84853 3.95393 4.14864C3.82971 4.44874 3.76578 4.7704 3.76578 5.09523V55.1686C3.76578 55.8247 4.02619 56.4538 4.48974 56.9177C4.95329 57.3816 5.58199 57.6422 6.23754 57.6422H96.0408C96.6964 57.6422 97.3251 57.3816 97.7886 56.9177C98.2521 56.4538 98.5126 55.8247 98.5126 55.1686V5.09523C98.5126 4.7704 98.4486 4.44874 98.3244 4.14864C98.2002 3.84853 98.0181 3.57584 97.7886 3.34615C97.5591 3.11646 97.2866 2.93425 96.9867 2.80995C96.6868 2.68564 96.3654 2.62166 96.0408 2.62166Z" fill="#3F3D56"/>
<path d="M95.1987 6.99316H7.07965V56.7378H95.1987V6.99316Z" fill="#48B6FF"/>
<path d="M51.0638 5.6365C51.563 5.6365 51.9676 5.23157 51.9676 4.73205C51.9676 4.23254 51.563 3.82761 51.0638 3.82761C50.5647 3.82761 50.16 4.23254 50.16 4.73205C50.16 5.23157 50.5647 5.6365 51.0638 5.6365Z" fill="#48B6FF"/>
<path opacity="0.1" d="M69.9981 56.7378H7.07967V6.99323L69.9981 56.7378Z" fill="black"/>
<path d="M20.8676 53.0153C25.5456 53.0153 29.3379 49.2203 29.3379 44.5389C29.3379 39.8574 25.5456 36.0624 20.8676 36.0624C16.1896 36.0624 12.3974 39.8574 12.3974 44.5389C12.3974 49.2203 16.1896 53.0153 20.8676 53.0153Z" fill="#F2F2F2"/>
<path d="M79.8557 33.8208H71.6244V35.5421H79.8557V33.8208Z" fill="#3F3D56"/>
<path d="M89.8069 20.4198H61.6732V21.1575H89.8069V20.4198Z" fill="#3F3D56"/>
<path d="M89.8069 22.7558H61.6732V23.4935H89.8069V22.7558Z" fill="#3F3D56"/>
<path d="M89.8069 25.0917H61.6732V25.8294H89.8069V25.0917Z" fill="#3F3D56"/>
<path d="M89.8069 27.4277H61.6732V28.1654H89.8069V27.4277Z" fill="#3F3D56"/>
<path d="M89.8069 29.7636H61.6732V30.5013H89.8069V29.7636Z" fill="#3F3D56"/>
<path d="M89.8069 8.00238H86.367V11.4448H89.8069V8.00238Z" fill="#F2F2F2"/>
<path d="M91.404 13.0431H87.227V8.86301H91.404V13.0431ZM87.4086 12.8614H91.2224V9.04476H87.4086V12.8614Z" fill="#3F3D56"/>
<path d="M100.987 55.8333H92.3869V55.2133C92.3869 55.1971 92.3837 55.1811 92.3775 55.1662C92.3714 55.1513 92.3623 55.1378 92.3509 55.1263C92.3395 55.1149 92.3259 55.1059 92.311 55.0997C92.2961 55.0935 92.2802 55.0903 92.264 55.0903H89.3155C89.2994 55.0903 89.2834 55.0935 89.2685 55.0997C89.2536 55.1059 89.2401 55.1149 89.2286 55.1263C89.2172 55.1378 89.2082 55.1513 89.202 55.1662C89.1958 55.1811 89.1926 55.1971 89.1926 55.2133V55.8333H87.3498V55.2133C87.3498 55.1971 87.3466 55.1811 87.3405 55.1662C87.3343 55.1513 87.3252 55.1378 87.3138 55.1263C87.3024 55.1149 87.2889 55.1059 87.274 55.0997C87.2591 55.0935 87.2431 55.0903 87.227 55.0903H84.2785C84.2623 55.0903 84.2463 55.0935 84.2314 55.0997C84.2165 55.1059 84.203 55.1149 84.1916 55.1263C84.1802 55.1378 84.1711 55.1513 84.1649 55.1662C84.1588 55.1811 84.1556 55.1971 84.1556 55.2133V55.8333H82.3128V55.2133C82.3128 55.1971 82.3096 55.1811 82.3034 55.1662C82.2973 55.1513 82.2882 55.1378 82.2768 55.1263C82.2654 55.1149 82.2518 55.1059 82.2369 55.0997C82.222 55.0935 82.2061 55.0903 82.1899 55.0903H79.2414C79.2253 55.0903 79.2093 55.0935 79.1944 55.0997C79.1795 55.1059 79.1659 55.1149 79.1545 55.1263C79.1431 55.1378 79.1341 55.1513 79.1279 55.1662C79.1217 55.1811 79.1186 55.1971 79.1186 55.2133V55.8333H77.2757V55.2133C77.2757 55.1971 77.2726 55.1811 77.2664 55.1662C77.2602 55.1513 77.2512 55.1378 77.2397 55.1263C77.2283 55.1149 77.2148 55.1059 77.1999 55.0997C77.185 55.0935 77.169 55.0903 77.1529 55.0903H74.2044C74.1882 55.0903 74.1722 55.0935 74.1573 55.0997C74.1424 55.1059 74.1289 55.1149 74.1175 55.1263C74.1061 55.1378 74.097 55.1513 74.0909 55.1662C74.0847 55.1811 74.0815 55.1971 74.0815 55.2133V55.8333H72.2387V55.2133C72.2387 55.1971 72.2355 55.1811 72.2293 55.1662C72.2232 55.1513 72.2141 55.1378 72.2027 55.1263C72.1913 55.1149 72.1777 55.1059 72.1628 55.0997C72.1479 55.0935 72.132 55.0903 72.1158 55.0903H69.1673C69.1512 55.0903 69.1352 55.0935 69.1203 55.0997C69.1054 55.1059 69.0918 55.1149 69.0804 55.1263C69.069 55.1378 69.06 55.1513 69.0538 55.1662C69.0476 55.1811 69.0444 55.1971 69.0444 55.2133V55.8333H67.2016V55.2133C67.2016 55.1971 67.1984 55.1811 67.1923 55.1662C67.1861 55.1513 67.1771 55.1378 67.1656 55.1263C67.1542 55.1149 67.1407 55.1059 67.1258 55.0997C67.1109 55.0935 67.0949 55.0903 67.0788 55.0903H64.1303C64.1141 55.0903 64.0981 55.0935 64.0832 55.0997C64.0683 55.1059 64.0548 55.1149 64.0434 55.1263C64.032 55.1378 64.0229 55.1513 64.0168 55.1662C64.0106 55.1811 64.0074 55.1971 64.0074 55.2133V55.8333H62.1646V55.2133C62.1646 55.1971 62.1614 55.1811 62.1552 55.1662C62.149 55.1513 62.14 55.1378 62.1286 55.1263C62.1172 55.1149 62.1036 55.1059 62.0887 55.0997C62.0738 55.0935 62.0578 55.0903 62.0417 55.0903H38.945C38.9289 55.0903 38.9129 55.0935 38.898 55.0997C38.8831 55.1059 38.8695 55.1149 38.8581 55.1263C38.8467 55.1378 38.8377 55.1513 38.8315 55.1662C38.8253 55.1811 38.8221 55.1971 38.8221 55.2133V55.8333H36.9793V55.2133C36.9793 55.1971 36.9761 55.1811 36.97 55.1662C36.9638 55.1513 36.9548 55.1378 36.9433 55.1263C36.9319 55.1149 36.9184 55.1059 36.9035 55.0997C36.8886 55.0935 36.8726 55.0903 36.8565 55.0903H33.908C33.8918 55.0903 33.8758 55.0935 33.8609 55.0997C33.846 55.1059 33.8325 55.1149 33.8211 55.1263C33.8097 55.1378 33.8006 55.1513 33.7944 55.1662C33.7883 55.1811 33.7851 55.1971 33.7851 55.2133V55.8333H31.9423V55.2133C31.9423 55.1971 31.9391 55.1811 31.9329 55.1662C31.9267 55.1513 31.9177 55.1378 31.9063 55.1263C31.8949 55.1149 31.8813 55.1059 31.8664 55.0997C31.8515 55.0935 31.8355 55.0903 31.8194 55.0903H28.8709C28.8548 55.0903 28.8388 55.0935 28.8239 55.0997C28.809 55.1059 28.7954 55.1149 28.784 55.1263C28.7726 55.1378 28.7636 55.1513 28.7574 55.1662C28.7512 55.1811 28.748 55.1971 28.748 55.2133V55.8333H26.9052V55.2133C26.9052 55.1971 26.902 55.1811 26.8959 55.1662C26.8897 55.1513 26.8806 55.1378 26.8692 55.1263C26.8578 55.1149 26.8443 55.1059 26.8294 55.0997C26.8145 55.0935 26.7985 55.0903 26.7824 55.0903H23.8338C23.8177 55.0903 23.8017 55.0935 23.7868 55.0997C23.7719 55.1059 23.7584 55.1149 23.747 55.1263C23.7356 55.1378 23.7265 55.1513 23.7203 55.1662C23.7142 55.1811 23.711 55.1971 23.711 55.2133V55.8333H21.8682V55.2133C21.8682 55.1971 21.865 55.1811 21.8588 55.1662C21.8527 55.1513 21.8436 55.1378 21.8322 55.1263C21.8208 55.1149 21.8072 55.1059 21.7923 55.0997C21.7774 55.0935 21.7615 55.0903 21.7453 55.0903H18.7968C18.7807 55.0903 18.7647 55.0935 18.7498 55.0997C18.7349 55.1059 18.7213 55.1149 18.7099 55.1263C18.6985 55.1378 18.6895 55.1513 18.6833 55.1662C18.6771 55.1811 18.6739 55.1971 18.6739 55.2133V55.8333H16.8311V55.2133C16.8311 55.1971 16.8279 55.1811 16.8218 55.1662C16.8156 55.1513 16.8065 55.1378 16.7951 55.1263C16.7837 55.1149 16.7702 55.1059 16.7553 55.0997C16.7404 55.0935 16.7244 55.0903 16.7083 55.0903H13.7597C13.7436 55.0903 13.7276 55.0935 13.7127 55.0997C13.6978 55.1059 13.6843 55.1149 13.6729 55.1263C13.6615 55.1378 13.6524 55.1513 13.6462 55.1662C13.6401 55.1811 13.6369 55.1971 13.6369 55.2133V55.8333H11.7941V55.2133C11.7941 55.1971 11.7909 55.1811 11.7847 55.1662C11.7785 55.1513 11.7695 55.1378 11.7581 55.1263C11.7467 55.1149 11.7331 55.1059 11.7182 55.0997C11.7033 55.0935 11.6873 55.0903 11.6712 55.0903H8.7227C8.70656 55.0903 8.69059 55.0935 8.67568 55.0997C8.66078 55.1059 8.64723 55.1149 8.63583 55.1263C8.62442 55.1378 8.61537 55.1513 8.60919 55.1662C8.60302 55.1811 8.59984 55.1971 8.59984 55.2133V55.8333H2.94852C2.16652 55.8333 1.41656 56.1442 0.863602 56.6976C0.310648 57.2509 7.45008e-07 58.0015 0 58.784V60.1183C2.23502e-06 60.9008 0.31065 61.6513 0.863604 62.2047C1.41656 62.7581 2.16652 63.0689 2.94852 63.0689H100.987C101.769 63.0689 102.519 62.7581 103.072 62.2047C103.625 61.6513 103.935 60.9008 103.935 60.1183V58.784C103.935 58.0015 103.625 57.2509 103.072 56.6976C102.519 56.1442 101.769 55.8333 100.987 55.8333Z" fill="#3F3D56"/>
<path d="M22.9179 49.8332C20.8067 49.8332 18.7429 49.2067 16.9875 48.0329C15.2321 46.8591 13.864 45.1908 13.056 43.2388C12.2481 41.2869 12.0367 39.1391 12.4486 37.0669C12.8605 34.9948 13.8771 33.0914 15.37 31.5974C16.8628 30.1035 18.7648 29.0861 20.8354 28.6739C22.9061 28.2617 25.0524 28.4733 27.0028 29.2818C28.9533 30.0903 30.6205 31.4595 31.7934 33.2162C32.9663 34.9729 33.5924 37.0382 33.5924 39.1509C33.5891 41.983 32.4635 44.6983 30.4623 46.7009C28.4612 48.7035 25.748 49.83 22.9179 49.8332ZM22.9179 28.7498C20.8623 28.7498 18.8528 29.3598 17.1436 30.5027C15.4344 31.6456 14.1022 33.27 13.3156 35.1706C12.5289 37.0711 12.3231 39.1625 12.7241 41.1801C13.1251 43.1977 14.115 45.051 15.5686 46.5056C17.0221 47.9603 18.8741 48.9509 20.8902 49.3522C22.9064 49.7535 24.9962 49.5476 26.8953 48.7603C28.7945 47.9731 30.4178 46.64 31.5598 44.9295C32.7019 43.219 33.3114 41.2081 33.3114 39.1509C33.3083 36.3933 32.2123 33.7496 30.2638 31.7996C28.3153 29.8497 25.6735 28.7529 22.9179 28.7498Z" fill="#3F3D56"/>
<path d="M118.145 4.57416H82.3295V4.85527H118.145V4.57416Z" fill="#3F3D56"/>
<path d="M160 78.7877H57.048V79.0688H160V78.7877Z" fill="#3F3D56"/>
<path d="M62.8768 91.7189H27.0613V92H62.8768V91.7189Z" fill="#3F3D56"/>
<path d="M70.0861 77.3058H66.1534V81.2414H70.0861V77.3058Z" fill="#48B6FF"/>
<path d="M72.4738 78.9925H67.6984V74.2136H72.4738V78.9925ZM67.906 78.7847H72.2661V74.4214H67.906V78.7847Z" fill="#3F3D56"/>
<path d="M115.733 3.09222H111.801V7.02779H115.733V3.09222Z" fill="#48B6FF"/>
<path d="M118.121 4.7789H113.346V0H118.121V4.7789ZM113.553 4.57113H117.913V0.207779H113.553V4.57113Z" fill="#3F3D56"/>
<path d="M155.341 77.3058H151.408V81.2414H155.341V77.3058Z" fill="#48B6FF"/>
<path d="M157.729 78.9925H152.953V74.2136H157.729V78.9925ZM153.161 78.7847H157.521V74.4214H153.161V78.7847Z" fill="#3F3D56"/>
<path d="M148.483 32.6031H148.149V23.4443C148.149 22.7481 148.012 22.0588 147.746 21.4157C147.479 20.7726 147.089 20.1882 146.597 19.696C146.105 19.2037 145.522 18.8133 144.879 18.5469C144.236 18.2805 143.547 18.1434 142.852 18.1434H123.462C122.766 18.1434 122.077 18.2805 121.435 18.5469C120.792 18.8133 120.208 19.2037 119.716 19.696C119.224 20.1882 118.834 20.7726 118.568 21.4157C118.302 22.0588 118.165 22.7481 118.165 23.4443V73.6904C118.165 74.3866 118.302 75.0759 118.568 75.719C118.834 76.3621 119.224 76.9465 119.716 77.4387C120.208 77.931 120.792 78.3214 121.435 78.5878C122.077 78.8542 122.766 78.9913 123.462 78.9913H142.852C143.547 78.9913 144.236 78.8542 144.879 78.5878C145.522 78.3214 146.105 77.931 146.597 77.4387C147.089 76.9465 147.479 76.3621 147.746 75.719C148.012 75.0759 148.149 74.3866 148.149 73.6904V39.1225H148.483V32.6031Z" fill="#3F3D56"/>
<path d="M147.021 23.7558V73.9287C147.021 74.9787 146.604 75.9857 145.863 76.7282C145.121 77.4707 144.115 77.888 143.066 77.8882H123.582C122.533 77.888 121.527 77.4707 120.785 76.7282C120.043 75.9857 119.627 74.9787 119.627 73.9287V23.7558C119.627 22.7061 120.044 21.6995 120.785 20.9572C121.527 20.2149 122.533 19.7979 123.582 19.7978H125.946C125.83 20.0833 125.785 20.3931 125.817 20.6999C125.848 21.0067 125.955 21.301 126.126 21.5569C126.298 21.8128 126.531 22.0225 126.803 22.1675C127.074 22.3124 127.378 22.3883 127.686 22.3882H138.794C139.103 22.3883 139.406 22.3124 139.678 22.1675C139.95 22.0225 140.182 21.8128 140.354 21.5569C140.526 21.301 140.632 21.0067 140.664 20.6999C140.695 20.3931 140.651 20.0833 140.535 19.7978H143.066C144.115 19.7979 145.121 20.2149 145.862 20.9572C146.604 21.6995 147.021 22.7061 147.021 23.7558Z" fill="#48B6FF"/>
<path d="M136.226 52.8796H130.422V54.6009H136.226V52.8796Z" fill="#3F3D56"/>
<path d="M143.243 39.4787H123.405V40.2163H143.243V39.4787Z" fill="#3F3D56"/>
<path d="M143.243 41.8146H123.405V42.5523H143.243V41.8146Z" fill="#3F3D56"/>
<path d="M143.243 44.1506H123.405V44.8882H143.243V44.1506Z" fill="#3F3D56"/>
<path d="M143.243 46.4865H123.405V47.2242H143.243V46.4865Z" fill="#3F3D56"/>
<path d="M143.243 48.8225H123.405V49.5602H143.243V48.8225Z" fill="#3F3D56"/>
<path d="M134.017 29.6824H130.577V33.1249H134.017V29.6824Z" fill="#F2F2F2"/>
<path d="M131.894 30.5433V34.7234H136.071V30.5433H131.894ZM135.89 34.5421H132.075V30.7246H135.89V34.5421Z" fill="#3F3D56"/>
<path opacity="0.1" d="M147.021 68.5707V73.9287C147.021 74.9786 146.604 75.9856 145.863 76.7282C145.121 77.4707 144.115 77.888 143.066 77.8882H123.582C122.533 77.888 121.527 77.4707 120.785 76.7282C120.043 75.9856 119.627 74.9786 119.627 73.9287V46.9124L136.042 59.89L136.323 60.1121L139.376 62.5254L139.661 62.7517L147.021 68.5707Z" fill="black"/>
<path d="M131.638 76.2622C135.041 76.2622 137.8 73.5016 137.8 70.0963C137.8 66.6909 135.041 63.9304 131.638 63.9304C128.236 63.9304 125.477 66.6909 125.477 70.0963C125.477 73.5016 128.236 76.2622 131.638 76.2622Z" fill="#F2F2F2"/>
<path d="M44.969 92C42.5523 92 40.1898 91.2828 38.1803 89.9392C36.1708 88.5955 34.6046 86.6857 33.6798 84.4512C32.7549 82.2168 32.5129 79.7581 32.9844 77.386C33.4559 75.0139 34.6197 72.835 36.3286 71.1249C38.0375 69.4147 40.2148 68.25 42.5852 67.7782C44.9555 67.3064 47.4124 67.5485 49.6452 68.4741C51.878 69.3996 53.7864 70.967 55.1291 72.9779C56.4718 74.9889 57.1885 77.3531 57.1885 79.7716C57.1848 83.0137 55.8962 86.1219 53.6054 88.4144C51.3146 90.7068 48.2087 91.9964 44.969 92ZM44.969 67.8244C42.6078 67.8244 40.2996 68.5251 38.3364 69.8378C36.3731 71.1506 34.8429 73.0165 33.9393 75.1996C33.0357 77.3827 32.7993 79.7849 33.2599 82.1024C33.7206 84.42 34.8576 86.5488 36.5272 88.2196C38.1969 89.8905 40.3241 91.0284 42.64 91.4893C44.9558 91.9503 47.3562 91.7137 49.5377 90.8095C51.7192 89.9052 53.5837 88.3739 54.8955 86.4092C56.2074 84.4445 56.9076 82.1346 56.9076 79.7716C56.904 76.6041 55.645 73.5674 53.4069 71.3276C51.1688 69.0878 48.1342 67.8279 44.969 67.8244Z" fill="#3F3D56"/>
<path d="M133.454 74.8522C131.927 74.8522 130.433 74.3988 129.163 73.5493C127.892 72.6999 126.902 71.4925 126.318 70.0799C125.733 68.6674 125.58 67.113 125.878 65.6134C126.176 64.1138 126.912 62.7364 127.992 61.6552C129.072 60.5741 130.449 59.8378 131.947 59.5395C133.446 59.2412 134.999 59.3943 136.411 59.9795C137.822 60.5646 139.029 61.5554 139.877 62.8267C140.726 64.098 141.179 65.5926 141.179 67.1216C141.177 69.1711 140.362 71.1361 138.914 72.5854C137.466 74.0346 135.503 74.8498 133.454 74.8522ZM133.454 59.6721C131.982 59.6721 130.543 60.109 129.319 60.9276C128.095 61.7461 127.141 62.9096 126.577 64.2708C126.014 65.632 125.866 67.1298 126.153 68.5749C126.441 70.02 127.15 71.3473 128.191 72.3892C129.232 73.431 130.558 74.1405 132.002 74.4279C133.446 74.7154 134.943 74.5678 136.303 74.004C137.663 73.4402 138.826 72.4853 139.644 71.2603C140.462 70.0352 140.898 68.5949 140.898 67.1216C140.896 65.1465 140.111 63.253 138.716 61.8565C137.32 60.4599 135.428 59.6743 133.454 59.6721Z" fill="#3F3D56"/>
<circle cx="105.894" cy="47.1256" r="3.00963" transform="rotate(90 105.894 47.1256)" fill="#F5F5F5"/>
<circle cx="73.8937" cy="47.1256" r="3.00963" transform="rotate(90 73.8937 47.1256)" fill="#F5F5F5"/>
<circle cx="106.01" cy="58.0096" r="3.00963" transform="rotate(90 106.01 58.0096)" fill="#F5F5F5"/>
<circle cx="74.0096" cy="58.0096" r="3.00963" transform="rotate(90 74.0096 58.0096)" fill="#F5F5F5"/>
<circle cx="106.01" cy="68.0096" r="3.00963" transform="rotate(90 106.01 68.0096)" fill="#F5F5F5"/>
<circle cx="74.0096" cy="68.0096" r="3.00963" transform="rotate(90 74.0096 68.0096)" fill="#F5F5F5"/>
<circle cx="95.0096" cy="68.0096" r="3.00963" transform="rotate(90 95.0096 68.0096)" fill="#F5F5F5"/>
<circle cx="63.0096" cy="68.0096" r="3.00963" transform="rotate(90 63.0096 68.0096)" fill="#F5F5F5"/>
<circle cx="84.0096" cy="68.0096" r="3.00963" transform="rotate(90 84.0096 68.0096)" fill="#F5F5F5"/>
<circle cx="52.0096" cy="68.0096" r="3.00963" transform="rotate(90 52.0096 68.0096)" fill="#F5F5F5"/>
<circle cx="95.0096" cy="58.0096" r="3.00963" transform="rotate(90 95.0096 58.0096)" fill="#F5F5F5"/>
<circle cx="63.0096" cy="58.0096" r="3.00963" transform="rotate(90 63.0096 58.0096)" fill="#F5F5F5"/>
<circle cx="84.0096" cy="58.0096" r="3.00963" transform="rotate(90 84.0096 58.0096)" fill="#F5F5F5"/>
<circle cx="52.0096" cy="58.0096" r="3.00963" transform="rotate(90 52.0096 58.0096)" fill="#F5F5F5"/>
<circle cx="95.0096" cy="47.0096" r="3.00963" transform="rotate(90 95.0096 47.0096)" fill="#F5F5F5"/>
<circle cx="63.0096" cy="47.0096" r="3.00963" transform="rotate(90 63.0096 47.0096)" fill="#F5F5F5"/>
<circle cx="84.0096" cy="47.0096" r="3.00963" transform="rotate(90 84.0096 47.0096)" fill="#F5F5F5"/>
<circle cx="52.0096" cy="47.0096" r="3.00963" transform="rotate(90 52.0096 47.0096)" fill="#F5F5F5"/>
</g>
<defs>
<clipPath id="clip0">
<rect width="160" height="92" fill="white"/>
</clipPath>
</defs>
</svg>
