<svg width="218" height="64" viewBox="0 0 218 64" fill="none" xmlns="http://www.w3.org/2000/svg">
<g clip-path="url(#clip0)">
<path d="M90.957 39.639C92.9303 42.1797 95.175 43.45 97.691 43.45C99.1463 43.45 100.343 43.1787 101.28 42.636C102.217 42.0687 102.686 41.23 102.686 40.12C102.612 39.1333 102.057 38.3933 101.021 37.9L93.88 36.161C91.6847 35.4703 89.921 34.3603 88.589 32.831C87.257 31.277 86.591 29.575 86.591 27.725C86.591 24.6417 87.664 22.175 89.81 20.325C91.9807 18.475 94.4967 17.55 97.358 17.55C101.749 17.55 105.375 19.1533 108.236 22.36L103.204 26.393C101.749 24.8143 99.911 24.025 97.691 24.025C96.211 24.025 95.064 24.3333 94.25 24.95C93.4607 25.5667 93.066 26.3067 93.066 27.17C93.066 28.4033 93.9047 29.3777 95.582 30.093L102.76 31.795C107.027 33.3983 109.161 36.1733 109.161 40.12C109.161 42.7347 108.174 45.0287 106.201 47.002C104.228 48.9507 101.391 49.925 97.691 49.925C92.659 49.925 88.6383 47.705 85.629 43.265L90.957 39.639ZM131.93 40.305V33.608C131.659 33.164 131.338 32.757 130.968 32.387C129.686 31.129 128.156 30.5 126.38 30.5C124.58 30.5 123.05 31.129 121.792 32.387C120.534 33.645 119.905 35.1743 119.905 36.975C119.905 38.751 120.534 40.2803 121.792 41.563C123.05 42.821 124.58 43.45 126.38 43.45C128.156 43.45 129.686 42.8087 130.968 41.526C131.338 41.156 131.659 40.749 131.93 40.305ZM131.93 48.704C130.228 49.518 128.378 49.925 126.38 49.925C122.804 49.925 119.745 48.667 117.204 46.151C114.688 43.6103 113.43 40.5517 113.43 36.975C113.43 33.3983 114.688 30.352 117.204 27.836C119.745 25.2953 122.804 24.025 126.38 24.025C128.403 24.025 130.253 24.432 131.93 25.246V24.95H138.405V48.556C138.405 52.0093 137.184 54.9447 134.742 57.362C132.3 59.804 129.365 61.025 125.936 61.025V54.55C127.589 54.55 128.983 53.9703 130.117 52.811C131.277 51.6763 131.881 50.3073 131.93 48.704ZM162.463 48.704C160.785 49.518 158.935 49.925 156.913 49.925C153.336 49.925 150.277 48.667 147.737 46.151C145.221 43.6103 143.963 40.5517 143.963 36.975C143.963 33.3983 145.221 30.352 147.737 27.836C150.277 25.2953 153.336 24.025 156.913 24.025C158.935 24.025 160.785 24.432 162.463 25.246V24.95H168.938V49H162.463V48.704ZM162.463 40.305V33.608C162.191 33.164 161.871 32.757 161.501 32.387C160.218 31.129 158.689 30.5 156.913 30.5C155.112 30.5 153.583 31.129 152.325 32.387C151.067 33.645 150.438 35.1743 150.438 36.975C150.438 38.751 151.067 40.2803 152.325 41.563C153.583 42.821 155.112 43.45 156.913 43.45C158.689 43.45 160.218 42.8087 161.501 41.526C161.871 41.156 162.191 40.749 162.463 40.305ZM188.37 30.5C186.569 30.5 185.04 31.129 183.782 32.387C183.412 32.757 183.091 33.164 182.82 33.608V49H176.345V24.95H182.82V25.246C184.497 24.432 186.347 24.025 188.37 24.025V30.5ZM209.652 48.704C207.975 49.518 206.125 49.925 204.102 49.925C200.525 49.925 197.467 48.667 194.926 46.151C192.41 43.6103 191.152 40.5517 191.152 36.975C191.152 33.3983 192.41 30.352 194.926 27.836C197.467 25.2953 200.525 24.025 204.102 24.025C206.125 24.025 207.975 24.432 209.652 25.246V24.95H216.127V49H209.652V48.704ZM209.652 40.305V33.608C209.381 33.164 209.06 32.757 208.69 32.387C207.407 31.129 205.878 30.5 204.102 30.5C202.301 30.5 200.772 31.129 199.514 32.387C198.256 33.645 197.627 35.1743 197.627 36.975C197.627 38.751 198.256 40.2803 199.514 41.563C200.772 42.821 202.301 43.45 204.102 43.45C205.878 43.45 207.407 42.8087 208.69 41.526C209.06 41.156 209.381 40.749 209.652 40.305Z" fill="#144BFF"/>
<path d="M17.644 63.267C15.9927 63.2564 14.4078 62.6149 13.214 61.474C12.5952 60.8827 12.1037 60.1712 11.7699 59.3831C11.4362 58.5949 11.267 57.7469 11.273 56.891V55.697L45.181 36.45L21.296 22.718L19.319 23.709L20.759 22.528C20.727 22.508 14.503 18.962 12.123 13.239C9.74301 7.516 10.895 4.239 12.123 0C13.1243 1.758 14.364 3.36895 15.807 4.787C17.5071 6.17385 19.3466 7.38033 21.296 8.387L59.527 29.387C60.4889 29.9472 61.287 30.75 61.8416 31.7151C62.3963 32.6802 62.6881 33.7739 62.688 34.887C62.6911 36.0395 62.4029 37.174 61.8503 38.1854C61.2977 39.1967 60.4985 40.0521 59.527 40.672L20.832 62.395C19.8666 62.9659 18.7656 63.267 17.644 63.267Z" fill="url(#paint0_linear)"/>
<path d="M17.643 63.359C15.9914 63.3478 14.4065 62.7057 13.213 61.564C12.5946 60.9724 12.1036 60.2608 11.77 59.4727C11.4364 58.6847 11.2673 57.8368 11.273 56.981V46.209L20.757 38.432C20.713 38.416 8.965 33.851 3.872 27.116C-1.221 20.381 0.172002 7.174 0.172002 7.174C0.172002 7.174 1.292 10.074 6.446 13.896C11.0451 17.051 15.836 19.9169 20.791 22.477L46.148 36.968C47.1221 37.5248 47.9317 38.3291 48.4948 39.2996C49.0579 40.27 49.3544 41.372 49.3544 42.494C49.3544 43.616 49.0579 44.718 48.4948 45.6884C47.9317 46.6589 47.1221 47.4632 46.148 48.02L20.792 62.511C19.8353 63.066 18.749 63.3586 17.643 63.359Z" fill="url(#paint1_linear)"/>
<path d="M32.594 45.089C33.5252 45.6246 34.2988 46.3962 34.8367 47.3261C35.3746 48.256 35.6578 49.3112 35.6578 50.3855C35.6578 51.4598 35.3746 52.515 34.8367 53.4449C34.2988 54.3748 33.5252 55.1464 32.594 55.682L20.412 62.687C19.4828 63.2214 18.4293 63.5019 17.3574 63.5004C16.2854 63.4989 15.2328 63.2154 14.305 62.6784C13.3773 62.1413 12.6072 61.3697 12.072 60.4409C11.5368 59.5122 11.2554 58.4589 11.256 57.387V43.381C11.2554 42.3091 11.5368 41.2558 12.072 40.3271C12.6072 39.3983 13.3773 38.6267 14.305 38.0896C15.2328 37.5526 16.2854 37.2691 17.3574 37.2676C18.4293 37.2661 19.4828 37.5466 20.412 38.081L32.594 45.089Z" fill="url(#paint2_linear)"/>
</g>
<defs>
<linearGradient id="paint0_linear" x1="28.4524" y1="3.60622" x2="48.0875" y2="34.6476" gradientUnits="userSpaceOnUse">
<stop stop-color="#26DAFF"/>
<stop offset="1" stop-color="#7B9AFF"/>
</linearGradient>
<linearGradient id="paint1_linear" x1="24.6761" y1="39.1994" x2="54.3087" y2="21.487" gradientUnits="userSpaceOnUse">
<stop stop-color="#149FFC"/>
<stop offset="1" stop-color="#1988D2"/>
</linearGradient>
<linearGradient id="paint2_linear" x1="35.6578" y1="32.5457" x2="11.673" y2="52.826" gradientUnits="userSpaceOnUse">
<stop stop-color="#144AFC"/>
<stop offset="1" stop-color="#819EFF"/>
</linearGradient>
<clipPath id="clip0">
<rect width="217.891" height="63.5" fill="white"/>
</clipPath>
</defs>
</svg>
