<svg width="321" height="181" viewBox="0 0 321 181" fill="none" xmlns="http://www.w3.org/2000/svg">
<path d="M42.894 175.972C42.894 175.972 -24.0169 55.6336 26.0688 27.553C45.2843 16.78 63.3651 20.2535 81.7143 23.7269C101.523 27.4758 121.645 31.2247 143.845 17.0508C199.016 -18.1734 240.841 5.40759 270.733 49.2561C293.168 82.1599 305.05 103.445 316.302 129.066C333.828 168.97 296.673 178.072 296.673 178.072L42.892 175.972" fill="#EFF6FF"/>
<path d="M227.771 176.758L197.266 176.811C196.831 176.813 196.468 176.371 196.441 175.83C196.414 175.288 196.739 174.817 197.172 174.778L227.555 172.052C230.022 171.832 232.268 172.784 232.333 174.191C232.399 175.598 230.247 176.753 227.771 176.758Z" fill="#75A1DE"/>
<path d="M188.274 172.444C189.325 172.182 191.254 166.435 191.254 166.435C191.254 166.435 169.224 159.016 159.882 154.182L146.866 169.219C163.585 173.376 187.494 172.639 188.274 172.444" fill="#F09959"/>
<path d="M184.885 164.16C190.305 165.56 198.932 162.06 200.544 162.41C202.156 162.761 208.894 166.261 210.506 168.011C212.118 169.761 217.833 175.187 216.806 175.535C215.78 175.883 208.601 170.636 207.723 170.462C206.844 170.288 206.403 171.511 199.225 172.91C192.046 174.31 183.366 170.693 183.366 170.693L184.885 164.16" fill="#F09959"/>
<path d="M193.511 169.584C193.511 169.584 201.864 167.484 202.887 167.834C203.911 168.185 210.141 169.584 214.464 174.486C210.362 173.26 204.499 172.91 202.887 172.91C201.275 172.91 193.511 169.584 193.511 169.584Z" fill="#E38540"/>
<path d="M195.508 166.084C199.073 170.635 208.128 172.035 209.498 173.611C210.868 175.187 206.201 174.517 203.737 174.309C197.468 173.785 193.087 176.323 188.012 174.749C182.936 173.176 181.79 169.41 181.79 169.41L195.508 166.084Z" fill="#F09959"/>
<path d="M128.668 85.3049C112.581 93.1992 105.22 98.9736 100.226 120.5C95.2311 142.027 94.9684 162.504 97.597 177.73C115.453 178.247 166.629 180.171 166.629 180.171C166.629 180.171 165.654 148.911 160.425 124.174C155.43 100.549 148.333 91.3597 142.286 87.1612C136.24 82.9627 128.668 85.3049 128.668 85.3049Z" fill="#A2DFF2"/>
<path d="M132.56 158.564C126.794 152.79 128.354 113.674 118.891 96.085L101.277 128.9L95.9531 156.203C95.9081 164.09 96.4991 171.368 97.597 177.73C97.6279 177.902 97.7224 178.056 97.8618 178.162C98.0013 178.268 98.1755 178.318 98.35 178.302C112.891 177.031 113.7 170.72 160.144 163.72C161.241 163.556 136.484 162.495 132.56 158.564Z" fill="#96CFE0"/>
<path d="M127.137 85.3122C125.098 90.0618 129.24 96.2808 135.783 101.18C142.327 106.08 146.299 103.397 145.949 99.5464C145.599 95.696 145.248 91.6135 143.729 89.1626C142.21 86.7117 130.059 84.6111 130.059 84.6111C130.059 84.6111 127.488 84.4951 127.137 85.3122" fill="white"/>
<path d="M134.907 61.5087L128.668 85.3049C128.365 86.0902 128.248 86.9349 128.327 87.7727C128.406 88.6106 128.678 89.4188 129.121 90.1342C131.662 94.2312 137.127 102.106 141.04 101.064C146.298 99.6648 142.793 89.8634 142.793 89.8634L149.803 65.1826L134.906 61.5085" fill="#F09959"/>
<path d="M144.465 62.9754L138.236 60.4592L136.365 65.3176C137.224 86.0006 139.862 94.4411 143.913 96.7954C144.131 93.6048 142.793 89.8632 142.793 89.8632L147.876 71.4837L144.465 62.9754Z" fill="#E38540"/>
<path d="M161.765 72.3011C160.55 80.5145 157.309 87.5529 151.434 86.6877C145.559 85.8224 135.471 78.9457 136.686 70.7325C137.9 62.5193 151.089 52.6817 156.964 53.547C162.84 54.4122 162.98 64.0854 161.765 72.3011Z" fill="#F09959"/>
<path d="M117.05 103.175C117.518 101.309 110.035 100.194 108.844 101.705C97.0744 116.655 78.7646 157.042 82.8755 164.341C87.6075 172.741 138.587 161.709 139.639 161.446C140.69 161.182 137.798 153.308 137.798 153.308C137.798 153.308 109.23 153.834 104.411 150.595C119.395 122.506 113.5 117.31 117.05 103.175Z" fill="#F09959"/>
<path d="M114.158 94.7724C101.793 100.308 88.396 136.252 88.396 136.252C88.396 136.252 91.5505 137.038 101.803 140.451C106.065 141.87 110.195 143.187 110.195 143.187C110.195 143.187 120.009 130.468 123.096 120.5C127.073 107.66 121.782 91.3596 114.158 94.7724Z" fill="#A2DFF2"/>
<path d="M89.7222 132.878C101.287 134.367 108.198 138.389 111.71 141.135C112.238 140.402 112.876 139.498 113.582 138.461C111.149 136.185 105.856 132.126 98.1599 131.051C95.0349 130.616 92.6554 130.333 90.8491 130.154C90.4227 131.164 90.0451 132.08 89.7222 132.878Z" fill="white"/>
<path d="M92.3756 126.618C92.1774 127.068 91.9855 127.506 91.7998 127.933C101.958 127.527 111.706 132.467 114.167 135.486C114.456 135.839 114.711 136.151 114.938 136.429C115.193 136.04 115.452 135.639 115.714 135.228C114.047 133.589 111.087 130.957 108.092 129.651C101.959 126.978 93.1655 126.644 92.3758 126.618" fill="white"/>
<path d="M160.495 163.607H147.525L145.597 139.424H162.598L160.494 163.607" fill="#75A1DE"/>
<path d="M136.221 153.397C139.814 153.307 145.685 149.196 147.7 148.057C149.716 146.919 161.108 144.47 161.634 145.696C162.16 146.921 152.082 149.457 152.082 149.457L159.618 149.807C159.618 149.807 161.809 153.133 161.984 155.321C162.159 157.508 161.283 160.66 161.283 160.66L157.953 157.685C157.953 157.685 155.237 159.171 151.819 161.185C148.401 163.198 142.267 161.973 139.638 161.446C137.009 160.919 130.875 158.997 130.875 158.997L136.221 153.397" fill="#F09959"/>
<path d="M89.2508 152.259C89.2508 152.259 95.0636 148.904 100.905 149.721C104.253 150.19 104.616 150.733 104.41 150.596C105.134 149.24 105.81 147.936 106.437 146.685C103.394 146.825 95.5908 147.647 89.2502 152.259" fill="#E38540"/>
<path d="M272.735 111.04V170.636C272.735 172.618 270.864 174.223 268.557 174.223H256.027C253.89 174.223 252.157 175.711 252.157 177.549H270.19C274.072 177.549 277.218 174.846 277.218 171.511V111.04H272.736" fill="#6791C9"/>
<path d="M263.571 162.079L261.582 161.7C260.267 161.451 259.432 160.324 259.723 159.196L275.315 98.703C275.608 97.5767 276.92 96.8563 278.232 97.1077L280.221 97.4848C281.533 97.7362 282.371 98.8625 282.08 99.9888L266.486 160.481C266.196 161.61 264.884 162.328 263.572 162.079" fill="#95BEF5"/>
<path d="M264.113 162.183L263.881 162.137C262.867 161.943 262.221 161.073 262.443 160.203L278.278 98.7786C278.503 97.9061 279.517 97.3524 280.531 97.5459L280.764 97.5894C281.778 97.7828 282.424 98.653 282.199 99.5231L266.367 160.951C266.142 161.821 265.127 162.375 264.113 162.184" fill="#75A1DE"/>
<path d="M305.624 181H37.7767C37.1816 181 36.6109 180.764 36.1901 180.344C35.7694 179.923 35.533 179.353 35.533 178.759C35.533 178.465 35.591 178.174 35.7038 177.902C35.8165 177.63 35.9818 177.383 36.1901 177.175C36.3985 176.967 36.6458 176.802 36.918 176.689C37.1903 176.577 37.482 176.519 37.7767 176.519H305.624C306.22 176.518 306.791 176.754 307.212 177.175C307.633 177.595 307.87 178.165 307.871 178.759C307.87 179.354 307.633 179.924 307.212 180.344C306.791 180.764 306.22 181 305.624 181Z" fill="#2E5B9A"/>
<path d="M137.607 51.2465C125.471 58.7636 133.152 66.8948 129.926 80.8559C131.909 81.5351 134.074 77.6339 135.456 74.5666C136.839 71.4994 138.068 67.0494 138.529 67.2017C138.99 67.354 139.758 74.2596 139.758 74.2596L141.601 75.1805C141.601 75.1805 144.213 70.5783 144.06 69.5027C143.906 68.4272 141.755 63.2135 144.367 60.7577C146.045 59.1818 152.97 62.5995 152.97 62.5995L146.21 52.9335L137.607 51.2463" fill="#F09959"/>
<path d="M130.39 80.9324C130.232 80.9327 130.075 80.9066 129.926 80.8549C130.527 78.2072 130.82 75.4991 130.8 72.7843C130.8 69.3785 130.425 66.3718 130.425 63.6355C130.425 58.9173 131.539 55.0041 137.607 51.2456L146.21 52.9328L152.97 62.5988C152.97 62.5988 148.398 60.3413 145.784 60.3413C145.181 60.3413 144.681 60.4622 144.368 60.7569C143.393 61.673 143.082 62.9735 143.082 64.3005C143.082 66.529 143.964 68.8302 144.061 69.502C144.065 69.5364 144.067 69.5711 144.067 69.6059C144.063 70.8409 141.602 75.1797 141.602 75.1797L139.759 74.2588C139.759 74.2588 138.991 67.3556 138.53 67.201C138.522 67.199 138.514 67.1982 138.506 67.1986C138.167 67.1986 137.46 69.3836 136.593 71.7307C136.237 72.6951 135.853 73.6862 135.457 74.5659C134.182 77.3963 132.241 80.9325 130.391 80.9325" fill="#8F7A7A"/>
<path d="M164.185 59.377C163.57 66.742 152.139 64.4359 146.825 57.8446C141.755 51.5529 137.585 55.8891 132.538 57.9969C124.089 61.5259 133.614 41.1208 150.666 44.3427C163.461 46.7598 164.594 54.4751 164.185 59.377" fill="#2E5B9A"/>
<path d="M138.778 67.1995C139.302 69.9454 138.275 72.4471 136.483 72.7903C134.691 73.1335 132.813 71.1805 132.29 68.4346C131.766 65.6887 132.793 63.1847 134.585 62.8439C136.377 62.5031 138.254 64.4513 138.778 67.1995Z" fill="#F09959"/>
<path d="M268.029 83.4825H208.708C208.382 83.4825 208.07 83.3534 207.84 83.1235C207.61 82.8937 207.481 82.582 207.481 82.257V47.9561C207.481 47.6308 207.61 47.3189 207.84 47.0887C208.07 46.8585 208.382 46.7288 208.708 46.7283H268.029C268.355 46.7288 268.667 46.8584 268.897 47.0886C269.127 47.3188 269.256 47.6308 269.256 47.9561V82.257C269.256 82.582 269.127 82.8937 268.897 83.1235C268.667 83.3534 268.355 83.4825 268.029 83.4825Z" fill="#9EC8FF"/>
<path d="M266.294 82.3561H210.443C210.16 82.3558 209.888 82.2431 209.687 82.0429C209.487 81.8426 209.374 81.5711 209.374 81.2878V53.7087C209.374 53.4255 209.487 53.1539 209.687 52.9537C209.888 52.7534 210.16 52.6407 210.443 52.6404H266.294C266.578 52.6407 266.85 52.7534 267.05 52.9537C267.251 53.1539 267.364 53.4255 267.364 53.7087V81.2877C267.364 81.5709 267.251 81.8424 267.05 82.0427C266.85 82.243 266.578 82.3556 266.294 82.356" fill="white"/>
<path d="M211.837 50.8736H210.533C210.4 50.8739 210.273 50.8216 210.179 50.7282C210.085 50.6348 210.032 50.508 210.032 50.3756V49.3024C210.032 49.17 210.085 49.0432 210.179 48.9498C210.273 48.8565 210.4 48.8042 210.533 48.8044H211.837C211.97 48.8046 212.096 48.8572 212.19 48.9505C212.283 49.0439 212.336 49.1704 212.336 49.3024V50.3756C212.336 50.5076 212.283 50.6342 212.19 50.7275C212.096 50.8209 211.97 50.8734 211.837 50.8736Z" fill="white"/>
<path d="M216.022 50.8736H214.718C214.585 50.8734 214.459 50.8209 214.365 50.7275C214.272 50.6342 214.219 50.5076 214.219 50.3756V49.3024C214.219 49.1704 214.272 49.0439 214.365 48.9505C214.459 48.8572 214.585 48.8046 214.718 48.8044H216.022C216.155 48.8042 216.282 48.8565 216.376 48.9498C216.47 49.0432 216.523 49.17 216.523 49.3024V50.3756C216.523 50.508 216.47 50.6348 216.376 50.7282C216.282 50.8216 216.155 50.8739 216.022 50.8736Z" fill="white"/>
<path d="M220.21 50.8736H218.905C218.839 50.8737 218.775 50.8609 218.714 50.8359C218.653 50.8109 218.598 50.7742 218.552 50.728C218.506 50.6817 218.469 50.6268 218.444 50.5663C218.419 50.5058 218.406 50.441 218.406 50.3756V49.3024C218.406 49.237 218.419 49.1722 218.444 49.1117C218.469 49.0513 218.506 48.9963 218.552 48.9501C218.598 48.9038 218.653 48.8672 218.714 48.8422C218.775 48.8172 218.839 48.8043 218.905 48.8044H220.21C220.275 48.8043 220.34 48.8172 220.401 48.8422C220.461 48.8672 220.516 48.9038 220.562 48.9501C220.609 48.9963 220.645 49.0513 220.67 49.1117C220.696 49.1722 220.708 49.237 220.708 49.3024V50.3756C220.708 50.441 220.696 50.5058 220.67 50.5663C220.645 50.6268 220.609 50.6817 220.562 50.728C220.516 50.7742 220.461 50.8109 220.401 50.8359C220.34 50.8609 220.275 50.8737 220.21 50.8736Z" fill="white"/>
<path d="M211.535 80.4103H265.205V54.5838H211.535V80.4103ZM265.399 80.6038H211.341V54.3904H265.399V80.6038Z" fill="#9EC8FF"/>
<path d="M265.302 75.3997H211.438V75.2063H265.302V75.3997" fill="#9EC8FF"/>
<path d="M265.302 70.1959H211.438V70.0024H265.302V70.1959" fill="#9EC8FF"/>
<path d="M265.302 64.9918H211.438V64.7983H265.302V64.9918" fill="#9EC8FF"/>
<path d="M265.302 59.7879H211.438V59.5945H265.302V59.7879" fill="#9EC8FF"/>
<path d="M257.702 80.5073H257.51V54.4873H257.702V80.5073Z" fill="#9EC8FF"/>
<path d="M250.007 80.5073H249.814V54.4873H250.007V80.5073Z" fill="#9EC8FF"/>
<path d="M242.313 80.5073H242.119V54.4873H242.313V80.5073Z" fill="#9EC8FF"/>
<path d="M234.618 80.5073H234.425V54.4873H234.618V80.5073Z" fill="#9EC8FF"/>
<path d="M226.924 80.5073H226.731V54.4873H226.925V80.5073" fill="#9EC8FF"/>
<path d="M219.229 80.5073H219.036V54.4873H219.229V80.5073Z" fill="#9EC8FF"/>
<path d="M263.286 57.7743H261.476C261.143 57.7734 260.824 57.6409 260.589 57.4058C260.353 57.1708 260.221 56.8523 260.22 56.5199C260.22 56.1873 260.353 55.8685 260.588 55.6334C260.824 55.3982 261.143 55.2659 261.476 55.2654H263.286C263.619 55.2663 263.938 55.3987 264.174 55.6338C264.409 55.8689 264.542 56.1874 264.543 56.5199C264.541 56.8522 264.408 57.1705 264.173 57.4054C263.938 57.6404 263.619 57.773 263.286 57.7743" fill="#F39892"/>
<path d="M263.945 68.2742H260.818C260.659 68.2739 260.507 68.2109 260.395 68.099C260.283 67.9871 260.22 67.8355 260.22 67.6773V66.3648C260.22 66.2066 260.283 66.0549 260.395 65.943C260.507 65.8312 260.659 65.7682 260.818 65.7678H263.945C264.103 65.7682 264.255 65.8312 264.367 65.943C264.479 66.0549 264.542 66.2066 264.543 66.3648V67.6773C264.542 67.8355 264.479 67.9871 264.367 68.099C264.255 68.2109 264.103 68.2739 263.945 68.2742Z" fill="#F39892"/>
<path d="M225.014 64.1338H220.764C220.537 64.1335 220.32 64.0435 220.16 63.8835C220 63.7236 219.91 63.5067 219.909 63.2805V61.2815C219.91 61.0553 220 60.8385 220.16 60.6785C220.32 60.5186 220.537 60.4286 220.764 60.4282H225.014C225.24 60.429 225.457 60.5191 225.617 60.679C225.778 60.8388 225.868 61.0554 225.869 61.2815V63.2805C225.868 63.5066 225.778 63.7232 225.617 63.883C225.457 64.0429 225.24 64.133 225.014 64.1338Z" fill="#9EC8FF"/>
<path d="M224.414 63.6115H221.362C221.199 63.6113 221.042 63.5466 220.927 63.4315C220.812 63.3164 220.747 63.1603 220.747 62.9975V61.5614C220.748 61.399 220.813 61.2436 220.928 61.129C221.043 61.0144 221.199 60.95 221.362 60.95H224.414C224.576 60.95 224.732 61.0144 224.848 61.129C224.963 61.2436 225.028 61.399 225.029 61.5614V62.9972C225.028 63.1599 224.963 63.316 224.848 63.4311C224.733 63.5462 224.577 63.6109 224.414 63.6112" fill="white"/>
<path d="M255.86 79.7095H251.61C251.383 79.7087 251.166 79.6186 251.006 79.4587C250.846 79.2989 250.756 79.0823 250.755 78.8562V76.8572C250.756 76.6311 250.846 76.4145 251.006 76.2547C251.166 76.0948 251.383 76.0047 251.61 76.0039H255.86C256.086 76.0047 256.303 76.0948 256.463 76.2547C256.623 76.4145 256.713 76.6311 256.714 76.8572V78.8558C256.713 79.0819 256.623 79.2985 256.463 79.4584C256.303 79.6182 256.086 79.7084 255.86 79.7091" fill="#9EC8FF"/>
<path d="M255.26 79.1876H252.208C252.045 79.187 251.89 79.1223 251.775 79.0078C251.661 78.8933 251.596 78.7381 251.595 78.5761V77.1404C251.595 76.978 251.66 76.8223 251.775 76.7072C251.889 76.5922 252.045 76.5271 252.208 76.5264H255.26C255.423 76.5266 255.579 76.5913 255.694 76.7064C255.809 76.8215 255.874 76.9776 255.874 77.1404V78.5761C255.874 78.7385 255.809 78.894 255.693 79.0085C255.578 79.1231 255.422 79.1875 255.26 79.1876Z" fill="white"/>
<path d="M240.94 61.5088H237.61C237.502 61.508 237.398 61.4648 237.321 61.3883C237.245 61.3119 237.202 61.2084 237.201 61.1003C237.201 60.9921 237.244 60.8884 237.321 60.8118C237.398 60.7353 237.502 60.6922 237.61 60.6919H240.94C241.049 60.6922 241.153 60.7353 241.229 60.8118C241.306 60.8884 241.349 60.9921 241.349 61.1003C241.349 61.2084 241.305 61.3119 241.229 61.3883C241.152 61.4648 241.049 61.508 240.94 61.5088Z" fill="#9EC8FF"/>
<path d="M240.94 62.7899H237.61C237.502 62.7901 237.398 62.7475 237.321 62.6713C237.245 62.5952 237.201 62.4918 237.201 62.3838C237.201 62.2755 237.244 62.1718 237.321 62.0953C237.398 62.0187 237.502 61.9756 237.61 61.9753H240.94C241.049 61.9756 241.153 62.0187 241.229 62.0953C241.306 62.1718 241.349 62.2755 241.349 62.3838C241.349 62.4918 241.306 62.5952 241.229 62.6713C241.152 62.7475 241.049 62.7901 240.94 62.7899Z" fill="#9EC8FF"/>
<path d="M233.58 76.9975H230.249C230.141 76.9972 230.037 76.9541 229.96 76.8776C229.884 76.801 229.841 76.6973 229.84 76.5891C229.841 76.4809 229.884 76.3771 229.96 76.3006C230.037 76.2241 230.141 76.181 230.249 76.1807H233.58C233.688 76.181 233.792 76.2241 233.869 76.3006C233.945 76.3771 233.989 76.4809 233.989 76.5891C233.989 76.6973 233.945 76.801 233.869 76.8776C233.792 76.9541 233.688 76.9972 233.58 76.9975Z" fill="#9EC8FF"/>
<path d="M233.58 78.281H230.249C230.141 78.2807 230.037 78.2376 229.96 78.161C229.884 78.0845 229.841 77.9808 229.84 77.8725C229.841 77.7643 229.884 77.6606 229.96 77.5841C230.037 77.5075 230.141 77.4644 230.249 77.4641H233.58C233.688 77.4644 233.792 77.5075 233.869 77.5841C233.945 77.6606 233.989 77.7643 233.989 77.8725C233.989 77.9808 233.945 78.0845 233.869 78.161C233.792 78.2376 233.688 78.2807 233.58 78.281Z" fill="#9EC8FF"/>
<path d="M216.315 67.2832H212.985C212.876 67.2829 212.772 67.2398 212.696 67.1632C212.619 67.0867 212.576 66.983 212.576 66.8747C212.576 66.7665 212.619 66.6628 212.696 66.5862C212.772 66.5097 212.876 66.4666 212.985 66.4663H216.315C216.424 66.4666 216.527 66.5097 216.604 66.5862C216.681 66.6628 216.724 66.7665 216.724 66.8747C216.724 66.983 216.681 67.0867 216.604 67.1632C216.527 67.2398 216.424 67.2829 216.315 67.2832Z" fill="#9EC8FF"/>
<path d="M216.315 68.5666H212.985C212.876 68.5663 212.772 68.5232 212.696 68.4467C212.619 68.3701 212.576 68.2664 212.576 68.1582C212.576 68.0499 212.619 67.9462 212.696 67.8697C212.772 67.7932 212.876 67.75 212.985 67.7498H216.315C216.424 67.75 216.527 67.7932 216.604 67.8697C216.681 67.9462 216.724 68.0499 216.724 68.1582C216.724 68.2664 216.681 68.3701 216.604 68.4467C216.527 68.5232 216.424 68.5663 216.315 68.5666Z" fill="#9EC8FF"/>
<path d="M248.475 61.5088H245.147C245.039 61.508 244.935 61.4648 244.859 61.3883C244.782 61.3119 244.739 61.2084 244.738 61.1003C244.739 60.9921 244.782 60.8884 244.858 60.8118C244.935 60.7353 245.039 60.6922 245.147 60.6919H248.475C248.584 60.6922 248.688 60.7353 248.764 60.8118C248.841 60.8884 248.884 60.9921 248.884 61.1003C248.884 61.2084 248.84 61.3119 248.764 61.3883C248.687 61.4648 248.584 61.508 248.475 61.5088Z" fill="#9EC8FF"/>
<path d="M248.475 62.7899H245.147C245.039 62.7901 244.935 62.7475 244.859 62.6713C244.782 62.5952 244.739 62.4918 244.738 62.3838C244.739 62.2755 244.782 62.1718 244.858 62.0953C244.935 62.0187 245.039 61.9756 245.147 61.9753H248.475C248.584 61.9756 248.688 62.0187 248.764 62.0953C248.841 62.1718 248.884 62.2755 248.884 62.3838C248.884 62.4918 248.841 62.5952 248.764 62.6713C248.687 62.7475 248.583 62.7901 248.475 62.7899Z" fill="#9EC8FF"/>
<path d="M225.53 74.7208H220.597C220.392 74.7202 220.195 74.6387 220.049 74.4938C219.904 74.3489 219.821 74.1525 219.82 73.9472V71.7333C219.821 71.528 219.904 71.3316 220.049 71.1867C220.195 71.0418 220.392 70.9602 220.597 70.9597H225.53C225.735 70.9602 225.932 71.0418 226.078 71.1867C226.223 71.3316 226.306 71.528 226.307 71.7333V73.9472C226.306 74.1525 226.223 74.3489 226.078 74.4938C225.932 74.6387 225.735 74.7202 225.53 74.7208Z" fill="#9CD499"/>
<path d="M222.715 74.1016H222.7C222.647 74.0992 222.596 74.0861 222.549 74.0633C222.501 74.0405 222.459 74.0083 222.424 73.9688L221.502 72.9222C221.468 72.8842 221.442 72.8398 221.426 72.7917C221.409 72.7437 221.402 72.6928 221.406 72.6421C221.409 72.5914 221.422 72.5418 221.444 72.4961C221.467 72.4504 221.498 72.4096 221.536 72.376C221.574 72.3425 221.619 72.3169 221.667 72.3006C221.715 72.2842 221.766 72.2776 221.817 72.2809C221.868 72.2843 221.917 72.2976 221.963 72.3202C222.009 72.3427 222.049 72.374 222.083 72.4123L222.736 73.1519L224.414 71.5108C224.45 71.475 224.493 71.4469 224.541 71.4279C224.588 71.4089 224.639 71.3995 224.69 71.4002C224.741 71.4009 224.791 71.4116 224.838 71.4318C224.885 71.4521 224.928 71.4813 224.963 71.518C225.034 71.5916 225.073 71.6903 225.072 71.7926C225.071 71.8949 225.029 71.9925 224.956 72.0642L222.986 73.9907C222.913 74.0614 222.816 74.1012 222.715 74.1018" fill="white"/>
<path d="M248.577 58.8814H243.644C243.439 58.8809 243.242 58.7993 243.096 58.6544C242.951 58.5095 242.868 58.3131 242.867 58.1079V55.8939C242.868 55.6887 242.951 55.4922 243.096 55.3474C243.242 55.2025 243.439 55.1209 243.644 55.1204H248.577C248.782 55.1209 248.979 55.2026 249.124 55.3476C249.269 55.4925 249.351 55.6889 249.351 55.8939V58.1079C249.351 58.3129 249.269 58.5093 249.124 58.6542C248.979 58.7992 248.782 58.8808 248.577 58.8814Z" fill="#9CD499"/>
<path d="M245.762 58.2602H245.747C245.695 58.2587 245.643 58.2463 245.596 58.2239C245.548 58.2014 245.506 58.1693 245.471 58.1297L244.547 57.0831C244.48 57.0057 244.446 56.9048 244.453 56.8026C244.459 56.7003 244.506 56.6048 244.583 56.5369C244.621 56.5034 244.666 56.4778 244.714 56.4615C244.762 56.4451 244.813 56.4385 244.864 56.4418C244.915 56.4452 244.965 56.4585 245.01 56.4811C245.056 56.5036 245.097 56.5349 245.13 56.5732L245.781 57.3128L247.461 55.6717C247.497 55.6359 247.541 55.6078 247.588 55.5888C247.635 55.5698 247.686 55.5604 247.737 55.5611C247.788 55.5617 247.839 55.5725 247.886 55.5927C247.933 55.613 247.975 55.6422 248.01 55.6789C248.082 55.7525 248.121 55.8512 248.119 55.9535C248.118 56.0558 248.076 56.1534 248.003 56.2251L246.033 58.1516C245.96 58.2217 245.863 58.2607 245.762 58.2604" fill="white"/>
<path d="M247.689 72.7104C247.688 73.1748 247.503 73.62 247.174 73.9482C246.845 74.2763 246.399 74.4605 245.934 74.4603C245.469 74.46 245.024 74.2756 244.695 73.9474C244.366 73.6193 244.182 73.1744 244.181 72.7104C244.182 72.2464 244.366 71.8014 244.695 71.4733C245.024 71.1452 245.469 70.9607 245.934 70.9604C246.399 70.9602 246.845 71.1444 247.174 71.4726C247.503 71.8007 247.688 72.246 247.689 72.7104Z" fill="#9EC8FF"/>
<path d="M224.99 78.0463C224.99 78.2761 224.945 78.5037 224.856 78.716C224.768 78.9284 224.639 79.1213 224.477 79.2838C224.314 79.4463 224.121 79.5752 223.908 79.6631C223.695 79.7511 223.468 79.7963 223.237 79.7962C223.007 79.7963 222.779 79.7511 222.567 79.6631C222.354 79.5752 222.161 79.4463 221.998 79.2838C221.836 79.1213 221.706 78.9284 221.618 78.716C221.53 78.5037 221.485 78.2761 221.485 78.0463C221.485 77.8165 221.53 77.5889 221.618 77.3766C221.706 77.1643 221.836 76.9713 221.998 76.8088C222.161 76.6463 222.354 76.5174 222.567 76.4295C222.779 76.3416 223.007 76.2963 223.237 76.2964C223.468 76.2963 223.695 76.3416 223.908 76.4295C224.121 76.5174 224.314 76.6463 224.477 76.8088C224.639 76.9713 224.768 77.1643 224.856 77.3766C224.945 77.5889 224.99 77.8165 224.99 78.0463Z" fill="#9EC8FF"/>
<path d="M235.154 99.2879H199.377C199.216 99.2878 199.062 99.2238 198.948 99.1101C198.834 98.9963 198.77 98.842 198.77 98.6811V78.7691C198.769 78.6894 198.785 78.6104 198.815 78.5367C198.846 78.463 198.891 78.3961 198.947 78.3397C199.004 78.2833 199.071 78.2386 199.144 78.2082C199.218 78.1778 199.297 78.1622 199.377 78.1624H235.154C235.234 78.1622 235.313 78.1778 235.387 78.2082C235.46 78.2386 235.527 78.2833 235.584 78.3397C235.64 78.3961 235.685 78.463 235.716 78.5367C235.746 78.6104 235.762 78.6894 235.761 78.7691V98.6811C235.761 98.842 235.697 98.9963 235.583 99.1101C235.469 99.2238 235.315 99.2878 235.154 99.2879Z" fill="#9EC8FF"/>
<path d="M234.384 98.3574H200.149C200.075 98.3574 200.001 98.3428 199.932 98.3143C199.863 98.2858 199.8 98.2439 199.747 98.1912C199.694 98.1384 199.652 98.0758 199.624 98.0069C199.595 97.9379 199.58 97.864 199.581 97.7894V79.6589C199.581 79.5086 199.641 79.3645 199.748 79.2585C199.854 79.1524 199.999 79.093 200.149 79.0933H234.384C234.534 79.0935 234.678 79.1531 234.784 79.2591C234.89 79.3652 234.95 79.5089 234.95 79.6589V97.7894C234.95 97.9397 234.891 98.084 234.785 98.1905C234.678 98.297 234.534 98.357 234.384 98.3574Z" fill="white"/>
<path d="M233.336 97.1753H201.195C201.026 97.1751 200.864 97.108 200.745 96.9889C200.626 96.8697 200.559 96.7081 200.558 96.5395V80.9107C200.558 80.8271 200.575 80.7444 200.606 80.6672C200.638 80.59 200.685 80.5198 200.744 80.4607C200.804 80.4017 200.874 80.3549 200.951 80.323C201.028 80.2911 201.111 80.2747 201.195 80.2749H233.336C233.419 80.2746 233.502 80.2908 233.58 80.3227C233.657 80.3545 233.727 80.4013 233.786 80.4604C233.846 80.5195 233.892 80.5897 233.924 80.667C233.956 80.7443 233.973 80.8271 233.972 80.9107V96.5395C233.972 96.6231 233.956 96.7058 233.924 96.783C233.892 96.8602 233.845 96.9304 233.786 96.9894C233.727 97.0485 233.657 97.0953 233.579 97.1272C233.502 97.1591 233.419 97.1755 233.336 97.1753Z" fill="#9EC8FF"/>
<path d="M223.138 88.7253C223.138 89.4953 222.987 90.2579 222.691 90.9694C222.396 91.6808 221.964 92.3273 221.419 92.8718C220.873 93.4164 220.226 93.8483 219.514 94.143C218.801 94.4376 218.037 94.5893 217.266 94.5892C216.495 94.5893 215.732 94.4376 215.019 94.143C214.307 93.8483 213.659 93.4164 213.114 92.8718C212.569 92.3273 212.136 91.6808 211.841 90.9694C211.546 90.2579 211.394 89.4953 211.394 88.7253C211.394 87.9552 211.546 87.1926 211.841 86.4811C212.136 85.7697 212.569 85.1232 213.114 84.5787C213.659 84.0341 214.307 83.6022 215.019 83.3076C215.732 83.0129 216.495 82.8613 217.266 82.8613C218.037 82.8613 218.801 83.0129 219.514 83.3076C220.226 83.6022 220.873 84.0341 221.419 84.5787C221.964 85.1232 222.396 85.7697 222.691 86.4811C222.987 87.1926 223.138 87.9552 223.138 88.7253Z" fill="white"/>
<path d="M222.323 88.7253C222.323 89.3884 222.192 90.045 221.938 90.6577C221.684 91.2703 221.311 91.827 220.842 92.2959C220.372 92.7648 219.815 93.1367 219.201 93.3904C218.588 93.6441 217.93 93.7746 217.266 93.7745C216.602 93.7746 215.945 93.6441 215.331 93.3904C214.718 93.1367 214.16 92.7648 213.691 92.2959C213.221 91.827 212.849 91.2703 212.595 90.6577C212.341 90.045 212.21 89.3884 212.21 88.7253C212.21 88.0622 212.341 87.4055 212.595 86.7929C212.849 86.1802 213.221 85.6235 213.691 85.1547C214.16 84.6858 214.718 84.3138 215.331 84.0601C215.945 83.8064 216.602 83.6759 217.266 83.676C217.93 83.6759 218.588 83.8064 219.201 84.0601C219.815 84.3138 220.372 84.6858 220.842 85.1547C221.311 85.6235 221.684 86.1802 221.938 86.7929C222.192 87.4055 222.323 88.0622 222.323 88.7253Z" fill="#9EC8FF"/>
<path d="M219.757 88.4544L217.91 89.5203L216.061 90.5863V86.3225L217.91 87.3885L219.757 88.4544Z" fill="white"/>
<path d="M196.424 27.5532H173.288C173.01 27.5528 172.742 27.4422 172.545 27.2456C172.348 27.0489 172.237 26.7823 172.237 26.5041C172.237 26.2257 172.348 25.9589 172.545 25.7619C172.742 25.5649 173.009 25.4537 173.288 25.4526H196.424C196.703 25.4537 196.97 25.5649 197.167 25.762C197.364 25.959 197.474 26.2258 197.475 26.5041C197.474 26.7821 197.363 27.0486 197.166 27.2452C196.97 27.4418 196.703 27.5525 196.424 27.5532Z" fill="#9EC8FF"/>
<path d="M256.888 116.29H233.754C233.475 116.289 233.208 116.178 233.011 115.981C232.813 115.784 232.702 115.517 232.701 115.238C232.702 114.96 232.814 114.693 233.011 114.497C233.208 114.3 233.475 114.19 233.754 114.189H256.888C257.167 114.19 257.434 114.3 257.632 114.497C257.829 114.693 257.94 114.96 257.941 115.238C257.94 115.517 257.829 115.784 257.632 115.981C257.435 116.178 257.167 116.289 256.888 116.29Z" fill="#9EC8FF"/>
<path d="M256.888 120.14H233.754C233.475 120.139 233.208 120.028 233.011 119.831C232.813 119.634 232.702 119.367 232.701 119.089C232.702 118.81 232.814 118.544 233.011 118.347C233.208 118.151 233.475 118.04 233.754 118.04H256.888C257.167 118.04 257.434 118.151 257.632 118.347C257.829 118.544 257.94 118.81 257.941 119.089C257.94 119.367 257.829 119.634 257.632 119.831C257.435 120.028 257.167 120.139 256.888 120.14Z" fill="#9EC8FF"/>
<path d="M256.888 124.341H233.754C233.475 124.34 233.208 124.229 233.011 124.032C232.813 123.835 232.702 123.568 232.701 123.29C232.702 123.011 232.814 122.745 233.011 122.548C233.208 122.352 233.475 122.241 233.754 122.24H256.888C257.167 122.241 257.434 122.352 257.632 122.548C257.829 122.745 257.94 123.011 257.941 123.29C257.94 123.568 257.829 123.835 257.632 124.032C257.435 124.229 257.167 124.34 256.888 124.341Z" fill="#9EC8FF"/>
<path d="M211.319 31.5802H173.288C173.009 31.5791 172.742 31.468 172.545 31.271C172.348 31.074 172.237 30.8072 172.237 30.5288C172.237 30.2506 172.348 29.9839 172.545 29.7873C172.742 29.5907 173.01 29.4801 173.288 29.4797H211.319C211.598 29.4802 211.865 29.5908 212.062 29.7874C212.259 29.9839 212.371 30.2505 212.372 30.5288C212.371 30.8074 212.26 31.0742 212.062 31.2712C211.865 31.4681 211.598 31.5792 211.319 31.5802Z" fill="#9EC8FF"/>
<path d="M47.1238 89.7815C41.0776 95.2948 43.7065 100.808 48.1753 111.047C52.644 121.286 53.4331 159.087 53.4331 159.087L49.7526 158.562C49.7526 158.562 50.279 119.71 45.2838 109.21C40.2886 98.7104 38.186 93.4581 33.7172 96.8709C29.2484 100.284 47.1238 89.7815 47.1238 89.7815Z" fill="#74B570"/>
<path d="M50.4459 82.6448C49.7116 79.3793 45.3508 75.8431 39.5197 72.8459C40.3867 77.6631 43.1664 85.5429 40.2895 87.1576C36.4097 89.3379 39.9112 78.3377 38.4141 72.2925C32.6621 69.5185 26.5659 67.5214 20.2862 66.3537C20.295 66.3754 20.3017 66.3972 20.3107 66.4189C23.7281 75.0817 28.197 78.4947 26.357 79.8071C24.9725 80.7957 20.4632 70.7889 14.5088 65.6599C10.0393 65.4206 6.2584 66.0248 4.02139 67.7941C0.564129 70.5279 -1.75656 72.9521 1.72085 81.2766C3.70735 82.693 6.28019 83.7107 9.26983 84.008C17.1563 84.796 20.8365 85.0594 15.3161 87.6844C12.6127 88.9679 8.08171 87.6119 4.40769 86.7829C5.59945 88.9777 7.06404 91.46 8.8445 94.2856C9.90419 95.9786 11.1429 97.5532 12.5392 98.9821C15.0806 99.4679 17.297 99.4752 18.4704 98.9725C22.1506 97.3966 31.6143 92.4101 33.98 94.508C36.2958 96.5651 16.4534 97.8654 17.8285 103.091C27.4462 108.624 38.4519 105.992 40.3972 100.909C43.0096 94.0837 52.6564 92.4791 50.4459 82.6448Z" fill="#9CD499"/>
<path d="M30.5627 119.973C41.0779 112.096 51.8564 119.446 57.3765 127.848C62.8967 136.25 58.9539 155.149 58.9539 155.149C58.9539 155.149 56.8508 155.149 56.8508 154.361C56.8508 153.573 62.6342 132.049 48.9644 122.335C40.4128 116.258 34.2422 119.186 33.4547 122.072C32.6672 124.958 36.872 130.21 36.872 130.21L30.5627 119.973Z" fill="#74B570"/>
<path d="M54.748 103.784C44.2328 103.784 40.8155 120.06 43.7071 129.511C46.5987 138.962 50.5421 156.549 50.5421 156.549L53.1709 153.924C53.1709 153.924 43.1814 129.248 45.5466 118.221C47.9117 107.194 53.6951 105.359 54.748 105.359C55.8009 105.359 54.748 103.783 54.748 103.783" fill="#9CD499"/>
<path d="M45.9284 129.584C45.2059 128.599 44.2564 127.802 43.1604 127.261C43.3007 128.021 43.483 128.772 43.7066 129.511C45.024 133.816 46.5598 139.81 47.8417 145.063C47.9581 144.391 48.1378 143.354 48.4148 141.756C48.4802 141.377 48.5315 140.968 48.5673 140.533C47.4858 136.935 46.6048 133.279 45.9284 129.584" fill="#74B570"/>
<path d="M43.0533 129.663C23.0745 121.261 33.5997 109.734 15.9875 117.346C14.7468 117.882 13.2348 119.236 11.7215 121.1C13.5278 121.648 15.4315 121.801 17.3024 121.547C22.56 120.759 20.7197 124.96 12.0447 126.011C10.4094 126.209 9.0828 126.48 7.97963 126.867C3.84671 134.793 1.98419 145.225 10.7302 148.85C12.4535 149.563 14.5837 149.972 16.9547 150.124C19.6537 147.983 16.2961 135.588 20.4568 137.299C24.4514 138.94 19.2052 147.925 19.924 150.187C23.8671 150.117 28.2324 149.474 32.4041 148.442C34.0552 147.516 35.3153 146.279 35.7038 144.649C37.0181 139.136 28.3431 135.723 28.0795 130.998C27.8377 126.654 31.259 140.555 40.3229 142.602C48.5192 138.778 52.3918 133.589 43.0529 129.664" fill="#9CD499"/>
<path d="M57.2895 114.808C55.1867 110.346 60.7069 109.297 60.444 112.71C60.2111 115.734 60.1853 123.084 63.2911 125.085C68.6472 124.505 75.9344 122.352 81.4443 119.065C81.5144 118.595 81.4332 118.116 81.2124 117.696C78.8465 112.971 63.5996 109.034 68.3314 107.458C72.1001 106.203 78.7035 113.609 84.0245 117.339C87.2208 114.917 89.3616 112.031 89.3616 108.809C89.3616 104.446 84.055 99.5102 77.1924 97.1512C74.104 97.4606 71.2351 99.1476 66.7544 101.683C60.1345 105.43 61.6655 99.3724 67.9244 95.7783C62.5213 96.0562 57.1341 98.3621 53.1608 103.871C53.1608 103.871 53.5364 106.225 51.0418 109.868C44.2343 119.802 52.0903 125.6 61.4798 125.223C60.9488 122.606 58.743 117.892 57.2899 114.808" fill="#9CD499"/>
<path d="M31.1952 119.526C26.0543 123.495 20.3435 128.133 13.3326 131.283C6.32163 134.432 7.72324 144.7 7.72324 144.7C7.72324 144.7 6.67181 135.834 12.5137 132.798C18.3555 129.763 22.2116 126.149 26.6515 125.448C31.0914 124.747 33.5452 124.048 33.5452 124.048C33.5452 124.048 32.143 121.247 32.9608 120.198C33.7786 119.149 31.1936 119.526 31.1936 119.526" fill="#74B570"/>
<path d="M5.85565 72.9417C24.6668 77.9595 38.4541 89.9774 41.0244 92.8948C43.5947 95.8122 43.5949 96.6292 43.5949 96.6292L41.6088 100.364L40.6741 99.8947C40.6741 99.8947 42.1929 96.7452 38.2205 92.6628C31.3695 85.6194 23.031 80.06 17.3057 77.6091C11.5804 75.1582 5.85547 72.9417 5.85547 72.9417" fill="#74B570"/>
<path d="M57.7812 176.925H50.5942C48.1401 176.925 45.7866 175.951 44.0513 174.218C42.316 172.485 41.341 170.135 41.3408 167.684V151.195H67.0348V167.684C67.0346 170.135 66.0596 172.485 64.3242 174.218C62.5889 175.951 60.2353 176.924 57.7812 176.925" fill="#F39892"/>
</svg>
