<svg width="350" height="171" viewBox="0 0 350 171" fill="none" xmlns="http://www.w3.org/2000/svg">
<path d="M17.3474 170.111C17.3474 170.111 -11.9709 133.738 5.62004 99.1246C23.211 64.5115 56.6366 72.7245 103.55 37.5245C160.502 -5.20887 200.49 -7.55706 251.321 11.1243C280.058 21.6839 284.746 65.0978 330.484 92.0844C371.718 116.413 338.109 157.791 316.415 164.245C294.717 170.698 280.058 170.698 280.058 170.698L17.3474 170.111Z" fill="#EFF6FF"/>
<path d="M191.911 91.9119C184.591 106.774 175.418 147.386 172.914 149.611C170.411 151.837 155.953 160.46 153.449 164.632C150.95 168.805 152.061 167.414 153.175 167.692C154.286 167.97 217.121 168.249 217.121 168.249C217.121 168.249 209.892 125.133 209.059 124.855C208.226 124.577 191.911 91.912 191.911 91.912" fill="#A2DFF2"/>
<path d="M181.503 168.046C193.048 168.127 205.223 168.19 211.928 168.223L202.748 113.306C197.855 103.81 191.913 91.9109 191.913 91.9109C190.988 93.7847 190.037 96.0678 189.072 98.6315C188.121 139.879 194.06 151.44 189.596 158.79C186.118 164.525 182.941 167.091 181.504 168.046" fill="#96CFE0"/>
<path d="M311.976 171H10.2415C9.6242 171 9.03218 170.755 8.59566 170.318C8.15914 169.881 7.91387 169.289 7.91382 168.671C7.91382 168.054 8.15909 167.461 8.59561 167.024C9.03214 166.588 9.62419 166.342 10.2415 166.342H311.976C312.593 166.342 313.185 166.588 313.622 167.025C314.058 167.461 314.304 168.054 314.304 168.671C314.303 169.289 314.058 169.881 313.622 170.318C313.185 170.754 312.593 171 311.976 171" fill="#2E5B9A"/>
<path d="M230.447 73.7836C240.882 83.4217 264.117 92.5616 264.117 92.5616C264.117 92.5616 267.644 125.188 265.236 143.661C262.829 162.134 264.167 165.883 264.167 165.883H216.264C216.264 165.883 209.837 156.957 198.069 129.204C190.576 111.533 191.914 91.7214 191.914 91.7214L221.083 78.6024L230.448 73.7836" fill="#A2DFF2"/>
<path d="M216.266 166.072H264.167C264.167 166.072 262.827 162.323 265.236 143.85C267.218 128.639 265.175 103.832 264.393 95.5451L260.035 93.6774C249.101 96.8302 242.797 113.15 240.942 129.099C239.701 139.77 222.031 150.275 210.472 156.059C214.272 163.302 216.266 166.071 216.266 166.071" fill="#96CFE0"/>
<path d="M204.517 40.4873C198.746 53.3533 205.676 65.272 205.464 64.768C205.256 64.2678 214.204 43.0446 214.204 43.0446L204.517 40.4873Z" fill="#2E5B9A"/>
<path d="M226.399 50.0001L233.722 76.779C233.823 77.1511 233.834 77.542 233.754 77.9192C233.674 78.2965 233.505 78.6491 233.261 78.948C231.542 81.065 229.095 85.4192 224.164 86.8161C223.15 87.0635 222.108 87.1803 221.065 87.1637C220.578 87.1662 220.105 86.9984 219.728 86.6894C219.352 86.3804 219.095 85.9495 219.001 85.4712L214.097 60.0712L226.399 50.0001" fill="#F09959"/>
<path d="M225.003 52.2377L222.324 53.3362L214.098 60.0699L218.513 82.5894C226.005 77.9172 227.1 74.7637 225.003 52.2377" fill="#E38540"/>
<path d="M226.132 61.8469C224.51 70.655 217.92 76.6124 211.415 75.1524C204.909 73.6923 201.806 67.9912 202.568 56.5576C203.168 47.59 207.587 37.8418 214.097 39.3006C220.602 40.7603 227.753 53.0335 226.132 61.8456" fill="#F09959"/>
<path d="M264.111 92.7522C273.803 94.9414 275.604 114.636 278.757 135.406C279.118 137.797 280.981 158.033 280.981 158.033C280.976 159.197 280.644 160.337 280.021 161.321C279.398 162.305 278.51 163.094 277.46 163.596C274.291 165.18 273.01 166.378 254.658 166.563C237.033 166.741 214.311 166.007 214.311 166.007C214.311 166.007 214.109 159.446 215.914 156.24C218.635 151.418 246.502 144.494 249.097 144.124C249.466 138.931 246.536 120.143 250.578 107.404C253.361 98.6409 256.35 94.0512 260.094 92.8519C261.4 92.4547 262.788 92.4206 264.112 92.7531" fill="#A2DFF2"/>
<path d="M224.279 166.406C232.965 166.536 244.89 166.661 254.658 166.562C273.008 166.377 274.292 165.179 277.456 163.595C281.167 161.741 281.352 158.588 281.352 158.588C281.352 158.588 279.478 137.057 279.128 134.664C277.089 120.755 274.886 104.84 269.756 97.1569C274.579 111.291 275.354 123.217 275.438 128.31C275.485 130.89 275.245 134.422 274.495 136.89C273.661 139.625 271.529 141.341 268.189 140.413C261.516 138.559 253.176 142.453 253.176 142.453C253.176 142.453 259.478 140.228 265.409 142.268C271.34 144.308 283.577 157.846 270.228 162.853C266.146 164.385 241.68 165.635 224.279 166.406" fill="#96CFE0"/>
<path d="M217.402 156.857C217.402 156.857 219.872 152.653 224.936 152.653C230.005 152.653 229.636 160.936 228.894 163.656C228.152 166.375 225.184 166.499 225.184 166.499L214.31 166.005L217.402 156.857Z" fill="#96CFE0"/>
<path d="M206.377 168.388H137.822C137.323 168.387 136.845 168.188 136.492 167.836C136.139 167.483 135.94 167.006 135.938 166.507V165.967C135.94 165.468 136.139 164.99 136.492 164.638C136.845 164.285 137.323 164.087 137.822 164.086H206.377C206.875 164.088 207.352 164.286 207.704 164.639C208.056 164.991 208.255 165.468 208.256 165.967V166.507C208.255 167.005 208.056 167.482 207.704 167.835C207.352 168.187 206.875 168.386 206.377 168.388" fill="#75A1DE"/>
<path d="M216.04 157.352C205.413 153.519 202.622 154.962 200.224 154.261C194.29 152.53 192.806 154.013 188.977 164.522C188.214 166.616 190.457 166.748 192.682 166.748C194.906 166.748 197.627 162.421 198.491 161.926C199.356 161.431 201.704 161.184 201.704 161.184C201.704 161.184 200.964 161.184 199.852 163.409C198.739 165.634 197.379 166.5 199.111 166.5C200.84 166.5 201.089 163.657 204.301 164.275C207.513 164.893 206.278 166.5 214.307 166.377C222.345 166.253 228.406 166.377 228.275 161.555C228.151 156.98 228.658 154.693 224.318 153.89C220.981 153.271 216.04 157.351 216.04 157.351" fill="#F09959"/>
<path d="M216.182 157.35C223.286 156.547 221.2 165.402 220.459 166.144C219.721 166.885 224.418 166.404 224.418 166.404C224.418 166.404 226.624 162.852 224.77 158.772C222.915 154.692 219.211 154.507 219.211 154.507L216.058 156.238L216.182 157.35" fill="#A86B48"/>
<path d="M223.601 156.581C223.505 157.678 221.644 158.418 219.437 158.234C217.226 158.049 215.511 157.009 215.604 155.912C215.696 154.815 217.557 154.074 219.768 154.259C221.975 154.444 223.69 155.484 223.601 156.581Z" fill="#2E5B9A"/>
<path d="M223.036 156.034C222.955 157.014 221.288 157.675 219.314 157.511C217.343 157.346 215.811 156.417 215.895 155.437C215.975 154.456 217.642 153.795 219.613 153.96C221.584 154.124 223.116 155.052 223.036 156.034Z" fill="#3E6BAB"/>
<path d="M221.803 155.58C221.745 156.286 220.545 156.762 219.127 156.643C217.705 156.524 216.604 155.856 216.662 155.15C216.72 154.444 217.919 153.968 219.338 154.087C220.76 154.205 221.861 154.874 221.803 155.58Z" fill="#F0CEB4"/>
<path d="M135.312 154.803H66.2514C64.48 154.794 62.768 154.163 61.4146 153.019C60.0612 151.876 59.1525 150.293 58.8471 148.547L49.8396 98.8063C48.9913 94.1126 52.5425 89.7915 57.244 89.7915H126.305C128.076 89.8002 129.788 90.4312 131.141 91.5743C132.494 92.7173 133.403 94.2997 133.709 96.0451L142.716 145.787C143.565 150.478 140.014 154.802 135.312 154.802" fill="#75A1DE"/>
<path d="M138.542 145.973L129.35 97.2602C128.678 93.711 125.499 91.1339 121.792 91.1339H51.6097C50.8467 92.0145 50.292 93.0557 49.9866 94.1803C49.6813 95.3049 49.6332 96.4839 49.846 97.6296L59.1707 148.414C59.5002 150.207 60.4473 151.828 61.8476 152.994C63.2478 154.161 65.0126 154.8 66.8349 154.8H130.987C135.783 154.8 139.407 150.565 138.542 145.971" fill="#A8CEFF"/>
<path d="M121.889 161.462H108.779C106.442 161.462 104.544 159.378 104.544 156.808V132.828C104.544 128.737 101.526 125.422 97.8054 125.422H90.9594C87.2352 125.422 84.2207 128.738 84.2207 132.828V159.684C84.2207 164.276 87.6193 167.991 91.7993 167.963L127.578 167.717C127.578 164.262 125.029 161.462 121.888 161.462" fill="#75A1DE"/>
<path d="M84.7388 133.364V159.81C84.7396 161.869 85.5192 163.852 86.921 165.36C88.3228 166.868 90.243 167.789 92.2958 167.939L127.215 167.72C127.212 167.148 124.46 166.105 121.06 166.105H106.876C106.275 166.105 105.68 165.986 105.124 165.756C104.569 165.525 104.064 165.188 103.639 164.762C103.214 164.337 102.877 163.832 102.647 163.276C102.417 162.72 102.299 162.125 102.299 161.523V133.364C102.298 131.43 101.53 129.575 100.163 128.208C98.7959 126.841 96.942 126.073 95.009 126.073H92.0322C90.0987 126.072 88.244 126.84 86.8763 128.207C85.5085 129.574 84.7397 131.429 84.7388 133.364" fill="#A8CEFF"/>
<path d="M157.83 158.415C163.108 155.482 169.558 156.459 171.904 159.393C174.247 162.326 174.64 164.281 169.363 164.281C164.086 164.281 153.532 164.672 151.77 164.477C150.016 164.281 157.83 158.415 157.83 158.415" fill="#F09959"/>
<path d="M165.648 156.655C171.314 155.286 175.192 158.586 179.916 161.739C184.022 164.477 184.847 167.138 180.306 164.868C173.662 161.543 169.753 161.153 169.753 161.153L165.647 156.655" fill="#F09959"/>
<path d="M160.488 158.396C157.625 158.396 155.129 157.483 153.106 157.651C151.083 157.819 144.689 164.39 145.697 164.895C145.773 164.933 145.852 164.967 145.932 164.996C146.675 165.26 147.486 165.262 148.231 165.001C148.975 164.74 149.607 164.232 150.022 163.561C150.928 162.107 152.401 160.415 154.116 161.021C156.978 162.031 159.983 161.934 159.983 161.934L160.487 158.396" fill="#F09959"/>
<path d="M158.804 165.455C155.874 164.282 160.567 154.505 162.131 154.505C163.694 154.505 169.557 159.198 169.557 159.198C169.557 159.198 168.18 159.977 163.497 158.416C162.327 158.025 161.35 164.673 159.981 165.455C158.611 166.237 158.804 165.455 158.804 165.455" fill="#F7A96F"/>
<path d="M202.566 61.7069C202.291 72.4724 205.958 74.2929 208.524 75.7552C211.086 77.2172 222.134 74.8021 223.757 72.1395C227.907 65.3283 224.413 58.9744 225.341 59.0728C226.272 59.167 227.121 61.8211 229.538 65.2616C229.762 65.5799 231.334 67.7085 231.416 67.001C232.541 57.3584 237.559 54.3662 236.364 44.6152C235.484 37.4277 230.921 37.9978 230.921 37.9978C230.921 37.9978 227.981 31.9819 218.82 32.6662C212.686 33.1223 207.215 35.5168 200.888 37.1445C194.56 38.7723 208.37 53.1159 216.576 47.8786C224.782 42.6374 220.73 54.1814 222.023 55.074C223.32 55.9704 222.648 55.1959 223.242 61.1016C223.835 67.0073 216.336 70.8656 214.187 71.3713C207.317 72.9881 206.165 71.8537 204.664 69.265C203.355 67.0187 202.566 61.7071 202.566 61.7071" fill="#2E5B9A"/>
<path d="M231.011 58.3746C230.22 61.0875 228.292 62.8396 226.707 62.2868C225.118 61.7374 225.071 59.5319 225.258 56.3759C225.425 53.5352 227.973 51.9109 229.562 52.4636C231.147 53.013 231.797 55.6588 231.011 58.3746Z" fill="#F09959"/>
<path d="M80.8465 51.0909H22.1854C22.0333 51.091 21.8828 51.0611 21.7423 51.0029C21.6018 50.9447 21.4742 50.8594 21.3667 50.7519C21.2592 50.6443 21.1739 50.5167 21.1158 50.3761C21.0576 50.2356 21.0278 50.0849 21.0278 49.9328V24.6777C21.0278 24.5256 21.0576 24.375 21.1158 24.2345C21.1739 24.0939 21.2592 23.9662 21.3667 23.8587C21.4742 23.7511 21.6018 23.6659 21.7423 23.6077C21.8828 23.5495 22.0333 23.5196 22.1854 23.5197H80.8467C80.9987 23.5196 81.1493 23.5495 81.2898 23.6077C81.4303 23.6659 81.5579 23.7511 81.6654 23.8587C81.7729 23.9662 81.8581 24.0939 81.9163 24.2345C81.9744 24.375 82.0043 24.5256 82.0042 24.6777V49.9326C82.0043 50.0847 81.9744 50.2354 81.9163 50.3759C81.8581 50.5165 81.7729 50.6442 81.6654 50.7517C81.5579 50.8593 81.4303 50.9445 81.2898 51.0027C81.1493 51.0609 80.9987 51.0908 80.8467 51.0907" fill="#B7E1FF"/>
<path d="M79.4042 49.7934H23.6283C23.3807 49.793 23.1433 49.6944 22.9682 49.5192C22.7931 49.344 22.6945 49.1065 22.6941 48.8588V31.6959C22.6945 31.4482 22.7931 31.2107 22.9682 31.0355C23.1433 30.8603 23.3807 30.7617 23.6283 30.7612H79.4042C79.5269 30.7612 79.6484 30.7854 79.7617 30.8323C79.8751 30.8793 79.9781 30.9482 80.0648 31.0349C80.1516 31.1217 80.2204 31.2248 80.2673 31.3382C80.3143 31.4516 80.3384 31.5732 80.3384 31.6959V48.8588C80.3384 48.9815 80.3143 49.1031 80.2673 49.2165C80.2204 49.3299 80.1516 49.4329 80.0648 49.5197C79.9781 49.6065 79.8751 49.6754 79.7617 49.7223C79.6484 49.7693 79.5269 49.7934 79.4042 49.7934" fill="white"/>
<path d="M25.411 27.7012H24.0585C23.9903 27.7014 23.9228 27.6881 23.8597 27.6622C23.7966 27.6362 23.7392 27.5981 23.6909 27.55C23.6425 27.5019 23.6041 27.4447 23.5779 27.3817C23.5516 27.3187 23.538 27.2512 23.5378 27.1829V26.0691C23.538 26.0009 23.5516 25.9333 23.5778 25.8703C23.6041 25.8073 23.6425 25.7501 23.6908 25.702C23.7392 25.6538 23.7966 25.6157 23.8597 25.5897C23.9228 25.5637 23.9903 25.5505 24.0585 25.5507H25.411C25.5483 25.5509 25.68 25.6056 25.7771 25.7028C25.8743 25.8 25.9289 25.9317 25.929 26.0691V27.1829C25.9288 27.3203 25.8742 27.452 25.7771 27.5492C25.6799 27.6464 25.5483 27.701 25.411 27.7012" fill="white"/>
<path d="M29.7528 27.6992H28.3996C28.263 27.6986 28.1321 27.6441 28.0355 27.5474C27.9389 27.4508 27.8844 27.3199 27.8838 27.1832V26.0662C27.8843 25.9295 27.9388 25.7986 28.0355 25.7019C28.1321 25.6053 28.2629 25.5507 28.3996 25.5502H29.7528C29.8902 25.5496 30.0223 25.6037 30.12 25.7004C30.2177 25.7971 30.273 25.9287 30.2738 26.0662V27.1832C30.2729 27.3207 30.2176 27.4522 30.1199 27.5489C30.0222 27.6457 29.8902 27.6997 29.7528 27.6992" fill="white"/>
<path d="M34.0951 27.701H32.7409C32.6042 27.701 32.4731 27.6467 32.3764 27.5499C32.2797 27.4532 32.2253 27.322 32.2253 27.1852V26.0678C32.2253 25.931 32.2797 25.7998 32.3764 25.7031C32.4731 25.6064 32.6042 25.552 32.7409 25.552H34.0941C34.2316 25.5514 34.3636 25.6054 34.4612 25.7021C34.5589 25.7988 34.6142 25.9304 34.615 26.0678V27.1852C34.6142 27.3227 34.5589 27.4542 34.4612 27.551C34.3636 27.6477 34.2316 27.7016 34.0941 27.701" fill="white"/>
<path d="M55.0588 49.0109H24.5714C24.3296 49.0112 24.0975 48.9156 23.9259 48.7451C23.7544 48.5745 23.6574 48.3429 23.6562 48.101C23.6568 47.8585 23.7535 47.6262 23.9251 47.455C24.0966 47.2839 24.3291 47.1878 24.5714 47.188H55.0588C55.1786 47.188 55.2973 47.2116 55.408 47.2574C55.5187 47.3033 55.6193 47.3706 55.704 47.4554C55.7888 47.5401 55.856 47.6408 55.9018 47.7516C55.9477 47.8623 55.9712 47.9811 55.9712 48.101C55.9706 48.3426 55.8742 48.5742 55.7031 48.7448C55.5321 48.9154 55.3003 49.0111 55.0588 49.0109" fill="#B7E1FF"/>
<path d="M60.6742 49.0146H57.52C57.4792 49.0148 57.4388 49.0068 57.4011 48.9912C57.3634 48.9757 57.3291 48.9529 57.3003 48.924C57.2714 48.8951 57.2486 48.8608 57.233 48.8231C57.2175 48.7853 57.2096 48.7449 57.2097 48.7041V47.5022C57.2095 47.4612 57.2174 47.4206 57.2329 47.3827C57.2484 47.3447 57.2712 47.3102 57.3 47.2812C57.3288 47.2521 57.3631 47.229 57.4009 47.2131C57.4386 47.1973 57.4791 47.189 57.52 47.1888H60.6742C60.7568 47.1897 60.8357 47.2231 60.8938 47.2817C60.9518 47.3404 60.9845 47.4196 60.9846 47.5022V48.7041C60.9844 48.7864 60.9516 48.8653 60.8935 48.9234C60.8353 48.9816 60.7565 49.0144 60.6742 49.0146" fill="#B7E1FF"/>
<path d="M65.4315 49.0144H62.2766C62.194 49.0135 62.115 48.9802 62.0569 48.9214C61.9988 48.8627 61.9661 48.7834 61.9661 48.7007V47.5008C61.9661 47.4181 61.9987 47.3388 62.0568 47.2801C62.115 47.2213 62.1939 47.1879 62.2766 47.1871H65.4315C65.5146 47.1873 65.5942 47.2205 65.653 47.2793C65.7118 47.338 65.7449 47.4177 65.7451 47.5008V48.7007C65.7449 48.7839 65.7118 48.8635 65.653 48.9223C65.5942 48.9811 65.5146 49.0142 65.4315 49.0144Z" fill="#B7E1FF"/>
<path d="M78.2811 38.9105H27.7919C27.6283 38.9096 27.4716 38.8442 27.3559 38.7285C27.2402 38.6128 27.1748 38.4561 27.1738 38.2924C27.1747 38.1287 27.2401 37.9719 27.3558 37.8562C27.4716 37.7404 27.6282 37.675 27.7919 37.6741H78.2811C78.4454 37.6738 78.6031 37.7387 78.7196 37.8547C78.8362 37.9706 78.9019 38.128 78.9025 38.2924C78.9019 38.4568 78.8362 38.6142 78.7196 38.7301C78.6031 38.846 78.4454 38.9109 78.2811 38.9105" fill="#B7E1FF"/>
<path d="M78.2811 41.5846H27.7919C27.6282 41.5837 27.4716 41.5183 27.3558 41.4025C27.2401 41.2868 27.1747 41.13 27.1738 40.9663C27.1738 40.802 27.2388 40.6444 27.3546 40.5279C27.4705 40.4114 27.6276 40.3455 27.7919 40.3446H78.2811C78.4459 40.3446 78.604 40.4101 78.7205 40.5267C78.8371 40.6433 78.9025 40.8014 78.9025 40.9663C78.9019 41.1307 78.8362 41.2881 78.7196 41.4041C78.6031 41.52 78.4454 41.5849 78.2811 41.5846Z" fill="#B7E1FF"/>
<path d="M39.1911 47.0561H37.8353C37.7675 47.0561 37.7004 47.0427 37.6378 47.0168C37.5752 46.9908 37.5183 46.9528 37.4704 46.9048C37.4225 46.8569 37.3845 46.8 37.3586 46.7373C37.3326 46.6747 37.3193 46.6075 37.3193 46.5397V45.4229C37.3193 45.3551 37.3326 45.2879 37.3585 45.2253C37.3844 45.1626 37.4224 45.1057 37.4704 45.0577C37.5183 45.0098 37.5752 44.9717 37.6378 44.9458C37.7004 44.9198 37.7675 44.9065 37.8353 44.9065H39.1911C39.2589 44.9064 39.3261 44.9198 39.3887 44.9457C39.4514 44.9717 39.5083 45.0097 39.5562 45.0576C39.6042 45.1056 39.6422 45.1626 39.6681 45.2252C39.694 45.2879 39.7074 45.3551 39.7073 45.4229V46.5397C39.7073 46.6076 39.694 46.6747 39.6681 46.7374C39.6421 46.8 39.6041 46.857 39.5562 46.9049C39.5082 46.9529 39.4514 46.9909 39.3887 47.0168C39.3261 47.0428 39.2589 47.0561 39.1911 47.0561" fill="white"/>
<path d="M43.5311 47.0591H42.1789C42.0415 47.0588 41.9098 47.004 41.8126 46.9068C41.7155 46.8097 41.6607 46.6779 41.6604 46.5405V45.4237C41.6609 45.2865 41.7158 45.1552 41.813 45.0585C41.9102 44.9618 42.0418 44.9076 42.1789 44.9078H43.5311C43.599 44.9075 43.6664 44.9205 43.7293 44.9463C43.7922 44.9721 43.8493 45.01 43.8975 45.0579C43.9457 45.1059 43.9839 45.1629 44.01 45.2256C44.0361 45.2884 44.0495 45.3557 44.0495 45.4237V46.5405C44.0495 46.6086 44.0362 46.6761 44.0101 46.739C43.9841 46.802 43.9459 46.8592 43.8978 46.9074C43.8496 46.9555 43.7925 46.9937 43.7296 47.0198C43.6666 47.0458 43.5992 47.0592 43.5311 47.0591Z" fill="white"/>
<path d="M47.8779 47.055H46.5264C46.4585 47.0554 46.3912 47.0424 46.3283 47.0167C46.2655 46.9909 46.2084 46.953 46.1602 46.9051C46.1121 46.8572 46.0739 46.8002 46.0479 46.7375C46.0218 46.6747 46.0085 46.6074 46.0085 46.5395V45.4229C46.0084 45.3548 46.0218 45.2874 46.0478 45.2245C46.0738 45.1616 46.1119 45.1045 46.16 45.0563C46.2081 45.0082 46.2652 44.97 46.3281 44.944C46.391 44.918 46.4584 44.9047 46.5264 44.9048H47.8779C47.9459 44.9047 48.0133 44.918 48.0762 44.944C48.1391 44.97 48.1962 45.0082 48.2443 45.0563C48.2924 45.1045 48.3305 45.1616 48.3565 45.2245C48.3825 45.2874 48.3959 45.3548 48.3958 45.4229V46.5395C48.3958 46.6074 48.3824 46.6747 48.3564 46.7375C48.3304 46.8002 48.2922 46.8571 48.244 46.905C48.1959 46.9529 48.1387 46.9909 48.0759 47.0166C48.0131 47.0423 47.9458 47.0554 47.8779 47.055Z" fill="white"/>
<path d="M117.475 63.7019C117.474 65.8024 116.64 67.8168 115.156 69.3021C113.671 70.7874 111.658 71.6218 109.558 71.6219C108.519 71.6218 107.49 71.4168 106.529 71.0187C105.569 70.6206 104.697 70.0372 103.962 69.3017C103.227 68.5663 102.644 67.6932 102.247 66.7324C101.849 65.7716 101.645 64.7418 101.645 63.7019C101.645 62.6622 101.849 61.6326 102.247 60.672C102.644 59.7114 103.227 58.8386 103.962 58.1034C104.697 57.3682 105.569 56.785 106.53 56.3873C107.49 55.9895 108.519 55.7849 109.558 55.7852C110.598 55.7849 111.627 55.9894 112.587 56.3871C113.548 56.7848 114.42 57.3679 115.155 58.103C115.891 58.8382 116.474 59.7111 116.872 60.6717C117.27 61.6324 117.474 62.6621 117.475 63.7019" fill="#9CD499"/>
<path d="M108.776 66.6259H108.754C108.672 66.6227 108.592 66.6031 108.518 66.5682C108.444 66.5333 108.377 66.4838 108.323 66.4228L106.176 63.9791C106.123 63.9196 106.083 63.8503 106.057 63.7751C106.031 63.6999 106.02 63.6204 106.025 63.5411C106.03 63.4618 106.051 63.3842 106.086 63.3129C106.121 63.2415 106.17 63.1778 106.23 63.1255C106.35 63.0202 106.507 62.967 106.667 62.9776C106.826 62.9882 106.975 63.0617 107.08 63.182L108.809 65.1466L112.949 61.0938C113.005 61.0386 113.072 60.995 113.145 60.9656C113.218 60.9362 113.297 60.9215 113.376 60.9224C113.455 60.9233 113.533 60.9397 113.605 60.9708C113.678 61.0019 113.744 61.0469 113.799 61.1034C113.911 61.2177 113.973 61.3716 113.972 61.5316C113.971 61.6916 113.906 61.8446 113.793 61.9572L109.199 66.4544C109.087 66.5648 108.935 66.6264 108.777 66.6259" fill="white"/>
<path d="M168.192 26.9168H117.864C117.242 26.915 116.646 26.667 116.207 26.227C115.767 25.7871 115.519 25.1909 115.517 24.5686V6.57886C115.519 5.95715 115.768 5.36162 116.207 4.92234C116.647 4.48306 117.243 4.23569 117.864 4.23425H168.192C168.813 4.23644 169.408 4.48418 169.847 4.9234C170.286 5.36262 170.534 5.95771 170.536 6.57886V24.5686C170.534 25.1903 170.287 25.7862 169.848 26.2262C169.409 26.6661 168.814 26.9144 168.192 26.9168Z" fill="#9EC8FF"/>
<path d="M122.161 23.497V36.0099L136.575 21.5891C136.575 21.5891 122.455 23.4968 122.161 23.4968" fill="#9EC8FF"/>
<path d="M165.702 24.6658H120.351C119.824 24.6644 119.319 24.4543 118.946 24.0815C118.574 23.7087 118.364 23.2034 118.362 22.6761V8.47105C118.364 7.94389 118.574 7.43888 118.947 7.06612C119.319 6.69336 119.824 6.48309 120.351 6.4812H165.702C166.229 6.48259 166.734 6.6927 167.107 7.06557C167.479 7.43844 167.689 7.94373 167.691 8.47105V22.6761C167.69 23.2036 167.48 23.7092 167.107 24.0822C166.735 24.4551 166.229 24.665 165.702 24.6658" fill="white"/>
<path d="M145.227 10.9777H122.947C122.688 10.9777 122.439 10.8748 122.255 10.6916C122.071 10.5083 121.968 10.2597 121.967 10.0002C121.968 9.74078 122.072 9.49251 122.256 9.30941C122.44 9.12631 122.688 9.02322 122.947 9.02258H145.227C145.486 9.02313 145.735 9.12629 145.918 9.3095C146.101 9.49272 146.204 9.74106 146.205 10.0002C146.204 10.2594 146.101 10.5079 145.918 10.6912C145.735 10.8745 145.487 10.9775 145.227 10.9777" fill="#9EC8FF"/>
<path d="M163.837 14.7165H122.512C122.368 14.7164 122.23 14.6591 122.128 14.5573C122.026 14.4554 121.969 14.3173 121.969 14.1732V14.1628C121.969 14.0188 122.026 13.8807 122.128 13.7789C122.23 13.677 122.368 13.6197 122.512 13.6195H163.837C163.981 13.6197 164.119 13.677 164.221 13.7789C164.322 13.8807 164.38 14.0188 164.38 14.1628V14.1732C164.38 14.3173 164.322 14.4554 164.221 14.5573C164.119 14.6591 163.981 14.7164 163.837 14.7165" fill="#9EC8FF"/>
<path d="M163.837 16.8445H122.512C122.368 16.8443 122.23 16.787 122.128 16.6851C122.026 16.5833 121.969 16.4452 121.969 16.3011V16.2908C121.969 16.1467 122.026 16.0087 122.128 15.9068C122.23 15.805 122.368 15.7476 122.512 15.7474H163.837C163.981 15.7476 164.119 15.805 164.221 15.9068C164.322 16.0087 164.38 16.1467 164.38 16.2908V16.3011C164.38 16.4452 164.322 16.5833 164.221 16.6851C164.119 16.787 163.981 16.8443 163.837 16.8445Z" fill="#9EC8FF"/>
<path d="M155.293 23.8865H153.937C153.801 23.8859 153.67 23.8311 153.573 23.734C153.477 23.6369 153.423 23.5055 153.423 23.3686V22.2539C153.423 22.186 153.436 22.1188 153.461 22.056C153.487 21.9931 153.525 21.936 153.573 21.8879C153.62 21.8398 153.677 21.8015 153.74 21.7755C153.802 21.7494 153.87 21.736 153.937 21.736H155.293C155.361 21.7356 155.429 21.7488 155.492 21.7747C155.555 21.8006 155.612 21.8387 155.66 21.8869C155.708 21.935 155.746 21.9923 155.772 22.0553C155.798 22.1183 155.811 22.1858 155.811 22.2539V23.3686C155.811 23.4366 155.798 23.504 155.772 23.5669C155.746 23.6298 155.707 23.6869 155.659 23.735C155.611 23.7831 155.554 23.8212 155.491 23.8472C155.429 23.8732 155.361 23.8866 155.293 23.8865" fill="#9EC8FF"/>
<path d="M159.638 23.8852H158.287C158.219 23.8853 158.152 23.8719 158.089 23.8459C158.026 23.8198 157.969 23.7816 157.921 23.7335C157.873 23.6853 157.834 23.6281 157.808 23.5652C157.782 23.5023 157.769 23.4348 157.769 23.3667V22.25C157.77 22.113 157.824 21.9818 157.922 21.8853C158.019 21.7887 158.15 21.7346 158.287 21.735H159.638C159.775 21.7346 159.907 21.7886 160.004 21.8852C160.101 21.9818 160.156 22.113 160.157 22.25V23.3667C160.157 23.4348 160.143 23.5023 160.117 23.5652C160.091 23.6282 160.053 23.6854 160.005 23.7335C159.957 23.7817 159.9 23.8199 159.837 23.8459C159.774 23.8719 159.706 23.8853 159.638 23.8852" fill="#9EC8FF"/>
<path d="M163.98 23.8864H162.629C162.491 23.8861 162.359 23.8313 162.262 23.7341C162.165 23.6368 162.11 23.505 162.11 23.3674V22.2527C162.11 22.1152 162.165 21.9833 162.262 21.8861C162.359 21.7888 162.491 21.734 162.629 21.7336H163.98C164.048 21.7335 164.115 21.7469 164.178 21.7729C164.241 21.799 164.299 21.8372 164.347 21.8854C164.395 21.9336 164.433 21.9909 164.459 22.0539C164.485 22.1169 164.499 22.1845 164.498 22.2527V23.3674C164.499 23.4356 164.485 23.5032 164.459 23.5662C164.433 23.6292 164.395 23.6865 164.347 23.7347C164.299 23.7829 164.241 23.8212 164.178 23.8472C164.115 23.8733 164.048 23.8866 163.98 23.8864" fill="#9EC8FF"/>
</svg>
