
<svg width="110" height="124" viewBox="0 0 110 124" fill="none" xmlns="http://www.w3.org/2000/svg">
<circle cx="50" cy="73" r="50" fill="#48B6FF"/>
<circle cx="82" cy="28" r="28" fill="#48B6FF"/>
<circle cx="56.8937" cy="68.1255" r="3.00963" transform="rotate(90 56.8937 68.1255)" fill="#F5F5F5"/>
<circle cx="24.8937" cy="68.1255" r="3.00963" transform="rotate(90 24.8937 68.1255)" fill="#F5F5F5"/>
<circle cx="57.0097" cy="79.0096" r="3.00963" transform="rotate(90 57.0097 79.0096)" fill="#F5F5F5"/>
<circle cx="25.0097" cy="79.0096" r="3.00963" transform="rotate(90 25.0097 79.0096)" fill="#F5F5F5"/>
<circle cx="57.0097" cy="89.0096" r="3.00963" transform="rotate(90 57.0097 89.0096)" fill="#F5F5F5"/>
<circle cx="25.0097" cy="89.0096" r="3.00963" transform="rotate(90 25.0097 89.0096)" fill="#F5F5F5"/>
<circle cx="46.0097" cy="89.0096" r="3.00963" transform="rotate(90 46.0097 89.0096)" fill="#F5F5F5"/>
<circle cx="14.0097" cy="89.0096" r="3.00963" transform="rotate(90 14.0097 89.0096)" fill="#F5F5F5"/>
<circle cx="35.0097" cy="89.0096" r="3.00963" transform="rotate(90 35.0097 89.0096)" fill="#F5F5F5"/>
<circle cx="3.00965" cy="89.0096" r="3.00963" transform="rotate(90 3.00965 89.0096)" fill="#F5F5F5"/>
<circle cx="46.0097" cy="79.0096" r="3.00963" transform="rotate(90 46.0097 79.0096)" fill="#F5F5F5"/>
<circle cx="14.0097" cy="79.0096" r="3.00963" transform="rotate(90 14.0097 79.0096)" fill="#F5F5F5"/>
<circle cx="35.0097" cy="79.0096" r="3.00963" transform="rotate(90 35.0097 79.0096)" fill="#F5F5F5"/>
<circle cx="3.00965" cy="79.0096" r="3.00963" transform="rotate(90 3.00965 79.0096)" fill="#F5F5F5"/>
<circle cx="46.0097" cy="68.0096" r="3.00963" transform="rotate(90 46.0097 68.0096)" fill="#F5F5F5"/>
<circle cx="14.0097" cy="68.0096" r="3.00963" transform="rotate(90 14.0097 68.0096)" fill="#F5F5F5"/>
<circle cx="35.0097" cy="68.0096" r="3.00963" transform="rotate(90 35.0097 68.0096)" fill="#F5F5F5"/>
<circle cx="3.00966" cy="68.0096" r="3.00963" transform="rotate(90 3.00966 68.0096)" fill="#F5F5F5"/>
<circle cx="56.8937" cy="99.1255" r="3.00963" transform="rotate(90 56.8937 99.1255)" fill="#F5F5F5"/>
<circle cx="24.8937" cy="99.1255" r="3.00963" transform="rotate(90 24.8937 99.1255)" fill="#F5F5F5"/>
<circle cx="57.0097" cy="110.01" r="3.00963" transform="rotate(90 57.0097 110.01)" fill="#F5F5F5"/>
<circle cx="25.0097" cy="110.01" r="3.00963" transform="rotate(90 25.0097 110.01)" fill="#F5F5F5"/>
<circle cx="57.0097" cy="120.01" r="3.00963" transform="rotate(90 57.0097 120.01)" fill="#F5F5F5"/>
<circle cx="25.0097" cy="120.01" r="3.00963" transform="rotate(90 25.0097 120.01)" fill="#F5F5F5"/>
<circle cx="46.0097" cy="120.01" r="3.00963" transform="rotate(90 46.0097 120.01)" fill="#F5F5F5"/>
<circle cx="14.0097" cy="120.01" r="3.00963" transform="rotate(90 14.0097 120.01)" fill="#F5F5F5"/>
<circle cx="35.0097" cy="120.01" r="3.00963" transform="rotate(90 35.0097 120.01)" fill="#F5F5F5"/>
<circle cx="3.00965" cy="120.01" r="3.00963" transform="rotate(90 3.00965 120.01)" fill="#F5F5F5"/>
<circle cx="46.0097" cy="110.01" r="3.00963" transform="rotate(90 46.0097 110.01)" fill="#F5F5F5"/>
<circle cx="14.0097" cy="110.01" r="3.00963" transform="rotate(90 14.0097 110.01)" fill="#F5F5F5"/>
<circle cx="35.0097" cy="110.01" r="3.00963" transform="rotate(90 35.0097 110.01)" fill="#F5F5F5"/>
<circle cx="3.00965" cy="110.01" r="3.00963" transform="rotate(90 3.00965 110.01)" fill="#F5F5F5"/>
<circle cx="46.0097" cy="99.0096" r="3.00963" transform="rotate(90 46.0097 99.0096)" fill="#F5F5F5"/>
<circle cx="14.0097" cy="99.0096" r="3.00963" transform="rotate(90 14.0097 99.0096)" fill="#F5F5F5"/>
<circle cx="35.0097" cy="99.0096" r="3.00963" transform="rotate(90 35.0097 99.0096)" fill="#F5F5F5"/>
<circle cx="3.00965" cy="99.0096" r="3.00963" transform="rotate(90 3.00965 99.0096)" fill="#F5F5F5"/>
</svg>
