<svg width="125" height="128" viewBox="0 0 125 128" fill="none" xmlns="http://www.w3.org/2000/svg">
<circle cx="75" cy="50" r="50" fill="#48B6FF"/>
<path d="M23.3809 59.3501H23.8794V45.8269C23.8794 44.7991 24.0838 43.7813 24.481 42.8317C24.8782 41.8821 25.4604 41.0192 26.1943 40.2924C26.9283 39.5657 27.7996 38.9891 28.7585 38.5958C29.7174 38.2025 30.7452 38 31.7831 38H60.7153C62.8116 38 64.8219 38.8246 66.3042 40.2924C67.7864 41.7603 68.6191 43.751 68.6191 45.8269V120.016C68.6191 122.092 67.7864 124.083 66.3042 125.551C64.8219 127.019 62.8116 127.843 60.7154 127.843H31.7832C29.687 127.843 27.6766 127.019 26.1944 125.551C24.7121 124.083 23.8794 122.092 23.8794 120.017V68.9762H23.3809L23.3809 59.3501Z" fill="#E6E6E6"/>
<path d="M25.5616 45.8815V119.962C25.5617 121.512 26.1836 122.999 27.2905 124.095C28.3975 125.191 29.8989 125.807 31.4644 125.807H60.5354C62.1009 125.807 63.6022 125.191 64.7092 124.095C65.8161 122.999 66.438 121.512 66.4381 119.962V45.8815C66.438 44.3312 65.8161 42.8445 64.7092 41.7483C63.6022 40.6521 62.1009 40.0362 60.5354 40.0362H57.0087C57.182 40.4579 57.248 40.9153 57.2009 41.3682C57.1538 41.8211 56.995 42.2555 56.7385 42.6334C56.482 43.0113 56.1357 43.3209 55.7301 43.5351C55.3244 43.7493 54.8718 43.8615 54.412 43.8619H37.837C37.3773 43.8615 36.9247 43.7493 36.519 43.5351C36.1133 43.3209 35.767 43.0112 35.5105 42.6334C35.2541 42.2555 35.0953 41.8211 35.0482 41.3682C35.0011 40.9153 35.0671 40.4579 35.2403 40.0362H31.4644C29.8989 40.0362 28.3975 40.6521 27.2905 41.7483C26.1836 42.8445 25.5617 44.3312 25.5616 45.8815Z" fill="white"/>
<path d="M54.0278 60.3491H58.4921C58.86 60.3487 59.2126 60.2038 59.4727 59.9463C59.7328 59.6887 59.8791 59.3395 59.8795 58.9753V54.5543C59.8791 54.1901 59.7328 53.8408 59.4727 53.5833C59.2126 53.3257 58.86 53.1808 58.4921 53.1804H54.0278C53.6599 53.1808 53.3073 53.3257 53.0472 53.5833C52.7871 53.8408 52.6408 54.1901 52.6404 54.5543V58.9753C52.6408 59.3395 52.7871 59.6887 53.0472 59.9463C53.3073 60.2038 53.6599 60.3487 54.0278 60.3491Z" fill="#48B6FF"/>
<path d="M43.7677 60.3491H48.2321C48.5999 60.3487 48.9525 60.2038 49.2126 59.9463C49.4727 59.6887 49.619 59.3395 49.6194 58.9753V54.5543C49.619 54.1901 49.4727 53.8408 49.2126 53.5833C48.9525 53.3257 48.5999 53.1808 48.2321 53.1804H43.7677C43.3998 53.1808 43.0472 53.3257 42.7871 53.5833C42.527 53.8408 42.3807 54.1901 42.3803 54.5543V58.9753C42.3807 59.3395 42.527 59.6887 42.7871 59.9463C43.0472 60.2038 43.3998 60.3487 43.7677 60.3491Z" fill="#48B6FF"/>
<path d="M33.5076 60.3491H37.972C38.3398 60.3487 38.6925 60.2038 38.9526 59.9463C39.2126 59.6887 39.359 59.3395 39.3594 58.9753V54.5543C39.359 54.1901 39.2126 53.8408 38.9526 53.5833C38.6925 53.3257 38.3398 53.1808 37.972 53.1804H33.5076C33.1398 53.1808 32.7871 53.3257 32.527 53.5833C32.2669 53.8408 32.1206 54.1901 32.1202 54.5543V58.9753C32.1206 59.3395 32.2669 59.6887 32.527 59.9463C32.7871 60.2038 33.1398 60.3487 33.5076 60.3491Z" fill="#E6E6E6"/>
<path d="M54.0278 71.6458H58.4921C58.86 71.6454 59.2126 71.5005 59.4727 71.2429C59.7328 70.9854 59.8791 70.6361 59.8795 70.2719V65.851C59.8791 65.4867 59.7328 65.1375 59.4727 64.8799C59.2126 64.6224 58.86 64.4775 58.4921 64.4771H54.0278C53.6599 64.4775 53.3073 64.6224 53.0472 64.8799C52.7871 65.1375 52.6408 65.4867 52.6404 65.851V70.2719C52.6408 70.6361 52.7871 70.9854 53.0472 71.2429C53.3073 71.5005 53.6599 71.6454 54.0278 71.6458Z" fill="#E6E6E6"/>
<path d="M43.7677 71.6458H48.2321C48.5999 71.6454 48.9525 71.5005 49.2126 71.2429C49.4727 70.9854 49.619 70.6361 49.6194 70.2719V65.851C49.619 65.4867 49.4727 65.1375 49.2126 64.8799C48.9525 64.6224 48.5999 64.4775 48.2321 64.4771H43.7677C43.3998 64.4775 43.0472 64.6224 42.7871 64.8799C42.527 65.1375 42.3807 65.4867 42.3803 65.851V70.2719C42.3807 70.6361 42.527 70.9854 42.7871 71.2429C43.0472 71.5005 43.3998 71.6454 43.7677 71.6458Z" fill="#E6E6E6"/>
<path d="M33.5076 71.6458H37.972C38.3398 71.6454 38.6925 71.5005 38.9526 71.2429C39.2126 70.9854 39.359 70.6361 39.3594 70.2719V65.851C39.359 65.4867 39.2126 65.1375 38.9526 64.8799C38.6925 64.6224 38.3398 64.4775 37.972 64.4771H33.5076C33.1398 64.4775 32.7871 64.6224 32.527 64.8799C32.2669 65.1375 32.1206 65.4867 32.1202 65.851V70.2719C32.1206 70.6361 32.2669 70.9854 32.527 71.2429C32.7871 71.5005 33.1398 71.6454 33.5076 71.6458Z" fill="#E6E6E6"/>
<path d="M54.0278 82.9403H58.4921C58.86 82.9399 59.2126 82.795 59.4727 82.5374C59.7328 82.2799 59.8791 81.9307 59.8795 81.5664V77.1455C59.8791 76.7812 59.7328 76.432 59.4727 76.1744C59.2126 75.9169 58.86 75.772 58.4921 75.7716H54.0278C53.6599 75.772 53.3073 75.9169 53.0472 76.1744C52.7871 76.432 52.6408 76.7812 52.6404 77.1455V81.5664C52.6408 81.9307 52.7871 82.2799 53.0472 82.5374C53.3073 82.795 53.6599 82.9399 54.0278 82.9403Z" fill="#E6E6E6"/>
<path d="M43.7677 82.9403H48.2321C48.5999 82.9399 48.9525 82.795 49.2126 82.5374C49.4727 82.2799 49.619 81.9307 49.6194 81.5664V77.1455C49.619 76.7812 49.4727 76.432 49.2126 76.1744C48.9525 75.9169 48.5999 75.772 48.2321 75.7716H43.7677C43.3998 75.772 43.0472 75.9169 42.7871 76.1744C42.527 76.432 42.3807 76.7812 42.3803 77.1455V81.5664C42.3807 81.9307 42.527 82.2799 42.7871 82.5374C43.0472 82.795 43.3998 82.9399 43.7677 82.9403Z" fill="#E6E6E6"/>
<path d="M33.5076 82.9403H37.972C38.3398 82.9399 38.6925 82.795 38.9526 82.5374C39.2126 82.2799 39.359 81.9307 39.3594 81.5664V77.1455C39.359 76.7812 39.2126 76.432 38.9526 76.1744C38.6925 75.9169 38.3398 75.772 37.972 75.7716H33.5076C33.1398 75.772 32.7871 75.9169 32.527 76.1744C32.2669 76.432 32.1206 76.7812 32.1202 77.1455V81.5664C32.1206 81.9307 32.2669 82.2799 32.527 82.5374C32.7871 82.795 33.1398 82.9399 33.5076 82.9403Z" fill="#E6E6E6"/>
<path d="M54.0278 94.2369H58.4921C58.86 94.2365 59.2126 94.0916 59.4727 93.8341C59.7328 93.5765 59.8791 93.2273 59.8795 92.863V88.4421C59.8791 88.0778 59.7328 87.7286 59.4727 87.4711C59.2126 87.2135 58.86 87.0686 58.4921 87.0682H54.0278C53.6599 87.0686 53.3073 87.2135 53.0472 87.4711C52.7871 87.7286 52.6408 88.0778 52.6404 88.4421V92.863C52.6408 93.2273 52.7871 93.5765 53.0472 93.8341C53.3073 94.0916 53.6599 94.2365 54.0278 94.2369Z" fill="#E6E6E6"/>
<path d="M43.7677 94.2369H48.2321C48.5999 94.2365 48.9525 94.0916 49.2126 93.8341C49.4727 93.5765 49.619 93.2273 49.6194 92.863V88.4421C49.619 88.0778 49.4727 87.7286 49.2126 87.4711C48.9525 87.2135 48.5999 87.0686 48.2321 87.0682H43.7677C43.3998 87.0686 43.0472 87.2135 42.7871 87.4711C42.527 87.7286 42.3807 88.0778 42.3803 88.4421V92.863C42.3807 93.2273 42.527 93.5765 42.7871 93.8341C43.0472 94.0916 43.3998 94.2365 43.7677 94.2369Z" fill="#E6E6E6"/>
<path d="M33.5076 94.2369H37.972C38.3398 94.2365 38.6925 94.0916 38.9526 93.8341C39.2126 93.5765 39.359 93.2273 39.3594 92.863V88.4421C39.359 88.0778 39.2126 87.7286 38.9526 87.4711C38.6925 87.2135 38.3398 87.0686 37.972 87.0682H33.5076C33.1398 87.0686 32.7871 87.2135 32.527 87.4711C32.2669 87.7286 32.1206 88.0778 32.1202 88.4421V92.863C32.1206 93.2273 32.2669 93.5765 32.527 93.8341C32.7871 94.0916 33.1398 94.2365 33.5076 94.2369Z" fill="#E6E6E6"/>
<path d="M40.8962 92.9269H45.3606C45.7449 92.9264 46.1134 92.7751 46.3852 92.5059C46.657 92.2368 46.8099 91.8719 46.8103 91.4912V87.0703C46.8098 86.6897 46.657 86.3248 46.3852 86.0557C46.1134 85.7865 45.7449 85.6351 45.3606 85.6347H40.8962C40.5118 85.6351 40.1434 85.7865 39.8716 86.0557C39.5998 86.3248 39.4469 86.6897 39.4465 87.0703V91.4912C39.4469 91.8719 39.5998 92.2368 39.8716 92.5059C40.1433 92.7751 40.5118 92.9264 40.8962 92.9269Z" fill="#48B6FF"/>
<path d="M62.0195 104.335C61.8507 104.252 61.7025 104.134 61.5851 103.988C61.4677 103.841 61.3841 103.672 61.3402 103.49C61.2962 103.309 61.293 103.12 61.3307 102.937C61.3684 102.754 61.4461 102.582 61.5584 102.432L60.5944 93.0977H62.6778L63.444 102.212C63.6858 102.415 63.8438 102.7 63.888 103.011C63.9323 103.322 63.8598 103.639 63.6842 103.9C63.5086 104.162 63.2422 104.351 62.9353 104.431C62.6285 104.511 62.3026 104.477 62.0195 104.335Z" fill="#FFB8B8"/>
<path d="M60.1065 87.9464C58.4786 87.9464 57.1589 86.6396 57.1589 85.0275C57.1589 83.4154 58.4786 82.1085 60.1065 82.1085C61.7345 82.1085 63.0541 83.4154 63.0541 85.0275C63.0541 86.6396 61.7345 87.9464 60.1065 87.9464Z" fill="#FFB8B8"/>
<path d="M59.5516 98.5336C59.6696 98.5335 59.7843 98.4952 59.8782 98.4243C59.972 98.3535 60.0398 98.2542 60.0711 98.1415C60.3073 97.2918 60.9217 95.8553 61.8973 93.8715C62.1174 93.423 62.2393 92.9336 62.255 92.4352C62.2706 91.9368 62.1797 91.4408 61.9882 90.9797C61.7967 90.5185 61.5088 90.1027 61.1436 89.7595C60.7784 89.4162 60.344 89.1534 59.869 88.9881C59.4188 88.8307 58.9413 88.7643 58.4648 88.7928C57.9882 88.8214 57.5223 88.9442 57.0946 89.1542C56.6668 89.3642 56.286 89.657 55.9745 90.0153C55.6631 90.3736 55.4273 90.7902 55.2813 91.2403C54.5251 93.5879 54.5616 96.1027 54.6124 97.0748C54.6187 97.1919 54.6636 97.3037 54.7402 97.3931C54.8168 97.4825 54.9209 97.5446 55.0365 97.5698L59.4358 98.5211C59.4738 98.5294 59.5126 98.5336 59.5516 98.5336Z" fill="#CCCCCC"/>
<path d="M55.2915 126.252L53.8201 126.252L53.1201 120.632L55.2917 120.632L55.2915 126.252Z" fill="#FFB8B8"/>
<path d="M50.9825 127.604L55.6067 127.605L55.6068 125.835L52.7692 125.835C52.5346 125.835 52.3023 125.881 52.0855 125.97C51.8688 126.059 51.6718 126.189 51.5059 126.353C51.34 126.518 51.2084 126.713 51.1186 126.927C51.0288 127.142 50.9826 127.372 50.9825 127.604Z" fill="#2F2E41"/>
<path d="M70.0039 124.363L68.7145 125.065L65.3669 120.475L67.2698 119.439L70.0039 124.363Z" fill="#FFB8B8"/>
<path d="M66.8862 127.605L70.9384 125.398L70.0777 123.848L67.5911 125.202C67.1759 125.428 66.8683 125.808 66.7362 126.259C66.604 126.709 66.658 127.193 66.8862 127.605Z" fill="#2F2E41"/>
<path d="M55.3602 123.132C55.4913 123.132 55.6179 123.085 55.7164 122.999C55.8148 122.913 55.8784 122.795 55.8952 122.666L57.7353 108.625C57.7434 108.563 57.7712 108.505 57.8146 108.459C57.858 108.414 57.9148 108.383 57.9769 108.371C58.0391 108.36 58.1033 108.368 58.1605 108.394C58.2178 108.421 58.265 108.465 58.2956 108.52L65.9642 122.297C66.0275 122.41 66.1294 122.496 66.2515 122.541C66.3735 122.585 66.5076 122.584 66.6294 122.539L68.3009 121.909C68.3681 121.883 68.4296 121.845 68.4816 121.796C68.5336 121.746 68.5752 121.687 68.6039 121.622C68.6326 121.557 68.6478 121.486 68.6486 121.415C68.6495 121.344 68.636 121.273 68.6088 121.207L63.2966 108.284C63.2832 108.251 63.274 108.217 63.2695 108.182C62.55 102.667 60.7193 99.8627 60.1754 99.1345C60.1356 99.081 60.1095 99.0188 60.0991 98.9532C60.0888 98.8876 60.0945 98.8204 60.1158 98.7575L60.1906 98.5353C60.2205 98.4471 60.2266 98.3528 60.2084 98.2616C60.1902 98.1703 60.1482 98.0854 60.0867 98.0151C58.1267 95.8044 54.7106 97.0108 54.6763 97.0232L54.6592 97.0294L54.6485 97.0439C50.818 102.246 52.2343 119.142 52.5571 122.477C52.5691 122.602 52.6255 122.719 52.7163 122.807C52.8071 122.895 52.9265 122.949 53.0532 122.958L55.3183 123.131C55.3323 123.132 55.3463 123.132 55.3602 123.132Z" fill="#2F2E41"/>
<path d="M48.6473 88.4181C48.662 88.4822 48.6716 88.5474 48.676 88.613L53.8314 91.5583L55.0845 90.8439L56.4204 92.5757L54.3261 94.0539C54.1569 94.1733 53.9532 94.2351 53.7455 94.2301C53.5378 94.2251 53.3373 94.1535 53.1742 94.0261L47.8581 89.8729C47.6182 89.9609 47.3569 89.9744 47.1091 89.9117C46.8612 89.849 46.6385 89.7131 46.4705 89.522C46.3026 89.3309 46.1973 89.0937 46.1688 88.842C46.1404 88.5902 46.1899 88.3358 46.311 88.1126C46.432 87.8895 46.6189 87.7081 46.8466 87.5926C47.0743 87.4771 47.3321 87.433 47.5857 87.4662C47.8393 87.4994 48.0767 87.6082 48.2664 87.7782C48.456 87.9483 48.5889 88.1715 48.6473 88.4181Z" fill="#FFB8B8"/>
<path d="M54.0038 91.6978L55.67 93.8363C55.7174 93.8971 55.7775 93.9471 55.8462 93.9829C55.9148 94.0187 55.9905 94.0393 56.068 94.0436C56.1455 94.0478 56.223 94.0354 56.2952 94.0072C56.3674 93.9791 56.4327 93.9359 56.4865 93.8805L58.3728 91.9409C58.6856 91.6988 58.8888 91.3439 58.9378 90.9538C58.9868 90.5636 58.8776 90.1702 58.6342 89.8597C58.3908 89.5491 58.033 89.3468 57.6392 89.2971C57.2454 89.2474 56.8477 89.3543 56.5334 89.5944L54.1676 90.9044C54.0999 90.9419 54.0411 90.9934 53.9953 91.0555C53.9495 91.1175 53.9178 91.1886 53.9022 91.2639C53.8867 91.3392 53.8877 91.4169 53.9052 91.4918C53.9227 91.5667 53.9563 91.6369 54.0038 91.6978Z" fill="#CCCCCC"/>
<path d="M60.4618 95.4131L63.146 94.9331C63.2223 94.9195 63.2948 94.8897 63.3585 94.8458C63.4222 94.8019 63.4756 94.7449 63.5151 94.6787C63.5545 94.6125 63.5791 94.5387 63.5871 94.4623C63.5952 94.3858 63.5865 94.3086 63.5617 94.2358L62.6915 91.6845C62.6187 91.2979 62.3941 90.9557 62.067 90.7329C61.7398 90.5101 61.3368 90.4249 60.9462 90.4959C60.5557 90.5669 60.2095 90.7883 59.9836 91.1117C59.7577 91.4351 59.6705 91.8339 59.7412 92.2209L59.826 94.9037C59.8285 94.9805 59.8476 95.0559 59.8822 95.1247C59.9167 95.1936 59.9658 95.2542 60.0261 95.3026C60.0865 95.3509 60.1566 95.3858 60.2318 95.4049C60.307 95.424 60.3854 95.4268 60.4618 95.4131H60.4618Z" fill="#CCCCCC"/>
<path d="M59.64 84.3561C58.8824 84.8695 57.8876 85.3974 57.1139 84.8506C56.8718 84.668 56.696 84.4128 56.6127 84.123C56.5294 83.8333 56.5431 83.5246 56.6517 83.2432C57.0222 82.194 58.0402 81.732 59.0136 81.378C60.2791 80.9177 61.657 80.5515 62.9634 80.8811C64.2697 81.2108 65.4243 82.4633 65.1885 83.7777C64.9988 84.8348 63.9919 85.7143 64.1349 86.7785C64.2787 87.8496 65.4951 88.4133 66.5689 88.6048C67.6427 88.7962 68.8444 88.8577 69.6161 89.6215C70.6006 90.5959 70.3547 92.3375 69.4284 93.3663C68.502 94.395 67.1041 94.8614 65.7496 95.1784C63.9548 95.5984 62.0137 95.8191 60.3092 95.1221C58.6046 94.425 57.2782 92.5485 57.772 90.789C57.9805 90.0458 58.4719 89.4176 58.9467 88.8061C59.4215 88.1946 59.9024 87.5552 60.0835 86.8049C60.2344 86.1797 60.1227 85.4538 59.704 84.9848C59.6279 84.9027 59.58 84.7989 59.5671 84.6881C59.5543 84.5774 59.5773 84.4655 59.6327 84.3684L59.64 84.3561Z" fill="#2F2E41"/>
<path d="M29.6694 126.446H31.1977L31.9247 120.608H29.6691L29.6694 126.446Z" fill="#FFB8B8"/>
<path d="M32.2894 126.014H29.3419V127.851H34.1452C34.1452 127.61 34.0972 127.371 34.0039 127.148C33.9106 126.925 33.7739 126.723 33.6016 126.552C33.4293 126.381 33.2247 126.246 32.9995 126.153C32.7744 126.061 32.5331 126.014 32.2894 126.014Z" fill="#2F2E41"/>
<path d="M23.935 126.446H25.4633L26.1903 120.608H23.9347L23.935 126.446Z" fill="#FFB8B8"/>
<path d="M26.5549 126.014H23.6075V127.851H28.4108C28.4108 127.61 28.3628 127.371 28.2695 127.148C28.1762 126.925 28.0395 126.723 27.8672 126.552C27.6949 126.381 27.4903 126.246 27.2651 126.153C27.04 126.061 26.7986 126.014 26.5549 126.014Z" fill="#2F2E41"/>
<path d="M24.1216 109.06C24.2863 108.955 24.4257 108.815 24.5301 108.651C24.6345 108.487 24.7013 108.303 24.7258 108.11C24.7503 107.918 24.7319 107.723 24.6719 107.538C24.612 107.354 24.5119 107.184 24.3787 107.042L25.385 92.9001L22.4863 93.1785L22.4066 107.028C22.1804 107.265 22.05 107.577 22.04 107.903C22.0301 108.229 22.1414 108.548 22.3528 108.798C22.5642 109.049 22.861 109.214 23.187 109.262C23.513 109.31 23.8455 109.238 24.1216 109.06H24.1216Z" fill="#FFB8B8"/>
<path d="M29.7416 123.505L31.424 123.426C31.5673 123.419 31.7026 123.358 31.802 123.256C31.9014 123.153 31.9573 123.017 31.9583 122.875L32.0757 106.017C32.0763 105.937 32.0594 105.858 32.0262 105.785C31.9929 105.712 31.9442 105.647 31.8833 105.594C31.8224 105.542 31.7507 105.503 31.6732 105.48C31.5957 105.458 31.5141 105.452 31.4342 105.463L24.7032 106.431C24.5703 106.449 24.4485 106.515 24.3602 106.615C24.272 106.715 24.2232 106.844 24.2229 106.977L23.3572 122.597C23.3566 122.67 23.3707 122.743 23.3987 122.811C23.4266 122.879 23.4678 122.941 23.52 122.993C23.5721 123.045 23.6342 123.086 23.7025 123.114C23.7708 123.142 23.8441 123.157 23.9182 123.157H25.732C25.8658 123.157 25.9954 123.11 26.0971 123.024C26.1988 122.938 26.2659 122.819 26.2861 122.688L27.4052 115.643C27.4216 115.54 27.475 115.446 27.5558 115.379C27.6365 115.312 27.739 115.276 27.8443 115.278C27.9497 115.28 28.0507 115.319 28.1289 115.389C28.207 115.459 28.257 115.555 28.2695 115.658L29.1579 123.016C29.1746 123.151 29.2404 123.275 29.343 123.365C29.4455 123.455 29.5778 123.505 29.7149 123.506C29.7238 123.506 29.7326 123.506 29.7416 123.505Z" fill="#2F2E41"/>
<path d="M28.5571 106.977C30.0405 106.161 31.1996 105.947 31.7584 105.891C31.8327 105.884 31.9047 105.862 31.9702 105.827C32.0356 105.791 32.0931 105.743 32.1391 105.685C32.1861 105.626 32.2207 105.559 32.2406 105.487C32.2606 105.415 32.2655 105.339 32.2552 105.265L30.6424 93.4077C30.5495 92.714 30.279 92.0553 29.8564 91.4945C29.4339 90.9336 28.8735 90.4891 28.2285 90.2033C27.6041 89.9191 26.9167 89.7978 26.2317 89.851C25.5466 89.9041 24.8867 90.13 24.3147 90.5071C24.2594 90.5435 24.2052 90.5807 24.152 90.6186C23.4932 91.0966 22.9921 91.7569 22.7118 92.5164C22.4315 93.276 22.3845 94.1007 22.5767 94.8866C23.5657 98.8932 23.9054 105.462 23.9635 106.738C23.968 106.846 24.005 106.951 24.0698 107.039C24.1345 107.127 24.2241 107.194 24.3272 107.232C24.9357 107.451 25.5779 107.564 26.2253 107.567C27.0408 107.572 27.8438 107.369 28.5571 106.977Z" fill="#48B6FF"/>
<path d="M24.7288 97.6521C24.7967 97.6037 24.8528 97.5409 24.8929 97.4683C24.933 97.3956 24.9561 97.315 24.9605 97.2323L25.1729 93.4207C25.194 93.043 25.0731 92.6711 24.8335 92.3765C24.594 92.0819 24.2528 91.8856 23.8758 91.8253C23.4987 91.7651 23.1125 91.8453 22.7916 92.0503C22.4707 92.2554 22.2378 92.5709 22.1379 92.9359L21.2049 96.3437C21.1661 96.4859 21.1859 96.6375 21.2599 96.7653C21.3338 96.893 21.456 96.9865 21.5995 97.0252L24.2536 97.7378C24.3342 97.7596 24.4188 97.7633 24.5011 97.7484C24.5833 97.7336 24.6611 97.7007 24.7288 97.6521Z" fill="#48B6FF"/>
<path d="M27.2081 88.5933C25.5171 88.5933 24.1463 87.2358 24.1463 85.5612C24.1463 83.8867 25.5171 82.5292 27.2081 82.5292C28.8991 82.5292 30.2699 83.8867 30.2699 85.5612C30.2699 87.2358 28.8991 88.5933 27.2081 88.5933Z" fill="#FFB8B8"/>
<path d="M38.3034 91.5182C38.2881 91.5848 38.2782 91.6525 38.2736 91.7207L32.9185 94.78L31.6168 94.038L30.2292 95.8369L33.0138 97.8023L39.1232 93.0294C39.3723 93.1207 39.6437 93.1347 39.9011 93.0696C40.1585 93.0045 40.3898 92.8633 40.5643 92.6648C40.7387 92.4664 40.8479 92.22 40.8775 91.9585C40.9071 91.6971 40.8556 91.4329 40.7299 91.2011C40.6042 90.9693 40.4102 90.7809 40.1737 90.661C39.9372 90.5411 39.6695 90.4953 39.406 90.5297C39.1426 90.5641 38.8961 90.6771 38.6991 90.8537C38.5021 91.0303 38.3641 91.2621 38.3034 91.5182Z" fill="#FFB8B8"/>
<path d="M32.7272 94.5199C32.7361 94.4376 32.7263 94.3543 32.6984 94.2762C32.6705 94.1982 32.6252 94.1273 32.566 94.0689L29.8405 91.3692C29.5704 91.1018 29.21 90.9428 28.8286 90.923C28.4472 90.9031 28.0719 91.0238 27.775 91.2618C27.4782 91.4997 27.2808 91.8381 27.221 92.2117C27.1611 92.5852 27.2431 92.9674 27.451 93.2847L29.3919 96.2465C29.473 96.37 29.6003 96.4565 29.7458 96.4872C29.8912 96.5179 30.043 96.4901 30.1679 96.4101L32.4746 94.9276C32.5449 94.8827 32.604 94.8227 32.6477 94.7522C32.6914 94.6816 32.7186 94.6022 32.7272 94.5199Z" fill="#48B6FF"/>
<path d="M25.0414 87.96C25.6126 88.5626 26.6734 88.2391 26.7478 87.416C26.7537 87.3521 26.7533 87.2878 26.7466 87.2239C26.7081 86.8593 26.4954 86.5283 26.5464 86.1433C26.5579 86.0475 26.594 85.9562 26.6511 85.878C27.1063 85.2745 28.1748 86.148 28.6043 85.6016C28.8677 85.2666 28.5581 84.739 28.7602 84.3646C29.027 83.8703 29.8172 84.1141 30.3127 83.8435C30.8641 83.5423 30.8311 82.7046 30.4682 82.1951C30.0256 81.5737 29.2495 81.2421 28.4832 81.1943C27.7168 81.1466 26.9557 81.3517 26.2402 81.6278C25.4273 81.9416 24.6212 82.3751 24.1209 83.083C23.5125 83.9438 23.454 85.1011 23.7582 86.1077C23.9433 86.72 24.575 87.468 25.0414 87.96Z" fill="#2F2E41"/>
</svg>
