<svg width="63" height="198" viewBox="0 0 63 198" fill="none" xmlns="http://www.w3.org/2000/svg">
<path d="M56 29.5C35.5787 12.5 3.05176e-05 17 0 0V198C0 198 27.5 184.5 27.5 155C27.5 124.071 46 134 56 120C68.2061 102.912 42.5787 120 42.5787 84C42.5787 57.5 76.4213 46.5 56 29.5Z" fill="#48B6FF"/>
<circle cx="33.1256" cy="21.1256" r="3.00963" fill="#F5F5F5"/>
<circle cx="33.1256" cy="53.1256" r="3.00963" fill="#F5F5F5"/>
<circle cx="44.0096" cy="21.0096" r="3.00963" fill="#F5F5F5"/>
<circle cx="44.0096" cy="53.0096" r="3.00963" fill="#F5F5F5"/>
<circle cx="54.0096" cy="21.0096" r="3.00963" fill="#F5F5F5"/>
<circle cx="54.0096" cy="53.0096" r="3.00963" fill="#F5F5F5"/>
<circle cx="54.0096" cy="32.0096" r="3.00963" fill="#F5F5F5"/>
<circle cx="54.0096" cy="64.0096" r="3.00963" fill="#F5F5F5"/>
<circle cx="54.0096" cy="43.0096" r="3.00963" fill="#F5F5F5"/>
<circle cx="54.0096" cy="75.0096" r="3.00963" fill="#F5F5F5"/>
<circle cx="44.0096" cy="32.0096" r="3.00963" fill="#F5F5F5"/>
<circle cx="44.0096" cy="64.0096" r="3.00963" fill="#F5F5F5"/>
<circle cx="44.0096" cy="43.0096" r="3.00963" fill="#F5F5F5"/>
<circle cx="44.0096" cy="75.0096" r="3.00963" fill="#F5F5F5"/>
<circle cx="33.0096" cy="32.0096" r="3.00963" fill="#F5F5F5"/>
<circle cx="33.0096" cy="64.0096" r="3.00963" fill="#F5F5F5"/>
<circle cx="33.0096" cy="43.0096" r="3.00963" fill="#F5F5F5"/>
<circle cx="33.0096" cy="75.0096" r="3.00963" fill="#F5F5F5"/>
</svg>
