<?xml version="1.0" encoding="utf-8"?>
<!-- Generator: Adobe Illustrator 16.0.0, SVG Export Plug-In . SVG Version: 6.00 Build 0)  -->
<!DOCTYPE svg PUBLIC "-//W3C//DTD SVG 1.1//EN" "http://www.w3.org/Graphics/SVG/1.1/DTD/svg11.dtd">
<svg version="1.1" id="Capa_1" xmlns="http://www.w3.org/2000/svg" xmlns:xlink="http://www.w3.org/1999/xlink" x="0px" y="0px"
	 width="612px" height="792px" viewBox="0 0 612 792" enable-background="new 0 0 612 792" xml:space="preserve">
<g>
	<g>
		<path fill="#2279AA" stroke="#29A0E2" stroke-width="6" stroke-miterlimit="10" d="M588.811,510.481
			c3.767-11.172,2.624-23.642-3.57-34.073c-11.568-19.487-36.834-25.931-56.319-14.361l-79.757,47.345
			c-2.772,1.646-5.336,3.649-7.675,5.949l-9.201,0.641c1.959-12.005-0.892-27.139-17.757-38.624
			c-66.437-45.26-77.876-54.987-98.288-59.514c-22.314-4.87-37.882-8.205-50.494-10.106c-4.894-0.739-9.463,2.63-10.202,7.525
			c-0.739,4.896,2.631,9.464,7.527,10.202c16.846,2.543,44.822,8.989,49.182,9.861c17.105,4.079,24.49,10.738,92.185,56.85
			c15.743,10.726,9.628,24.776,7.579,28.534c-5.49,6.571-14.479,9.023-22.566,6.088l-65.416-23.771
			c-4.658-1.693-9.797,0.711-11.486,5.362c-1.69,4.653,0.71,9.797,5.363,11.487l65.416,23.773
			c14.209,5.159,29.899,1.487,40.327-9.096c155.735-10.832,145.451-10.597,150.971-9.71c24.246,3.889,28.875,37.977-3.561,46.717
			c-0.399,0.08-185.511,37.261-185.902,37.361c-25.002,6.531-45.833-3.734-53.809-8.591c-62.919-42.869-66.049-47.536-92.439-52.551
			c-20.333-3.86-34.297,1.073-49.582,7.456l-44.307-107.603c28.847-10.982,58.169-18.668,79.025-22.153
			c4.884-0.814,8.182-5.435,7.367-10.317c-0.815-4.883-5.422-8.182-10.318-7.368c-22.052,3.681-52.578,11.694-82.897,23.271
			l-3.091-7.509c-4.577-11.117-17.288-16.417-28.408-11.836l-92.952,38.275C5.4,453.445,0,461.508,0,470.544v186.499
			c0,13.347,13.57,22.514,25.979,17.417l161.591-66.356c11.095-4.567,16.405-17.312,11.836-28.407c0,0,0,0-0.001,0l-3.243-7.876
			c13.906-5.813,24.043-9.342,39.407-6.422c18.011,3.423,21.307,5.479,59.112,31.521c1.138,0.784,25.948,17.866,27.125,18.591
			c19.452,11.929,43.992,16.893,67.628,10.829l185.433-37.253c0.167-0.033,0.334-0.073,0.5-0.116
			C624.258,576.199,619.448,524.209,588.811,510.481z M571.162,506.489c-2.85-0.136-77.564,5.229-92.545,6.271l59.456-35.294
			c10.991-6.521,25.231-2.887,31.75,8.099C573.634,491.98,574.045,499.771,571.162,506.489z M180.754,591.523L19.169,657.874
			c-0.122,0.05-0.445,0.182-0.842-0.085c-0.398-0.268-0.398-0.615-0.398-0.746V470.544c0-1.743,1.041-3.298,2.654-3.961
			l92.951-38.275c1.964-0.811,4.198,0.138,5.002,2.085c1.825,4.433,62.254,151.187,64.291,156.133
			C183.634,588.479,182.699,590.723,180.754,591.523z"/>
	</g>
</g>
<g>
	<g>
		<path fill="#2279AA" stroke="#29A0E2" stroke-width="6" stroke-miterlimit="10" d="M560.686,196.113h-9.632
			c-1.518-5.153-3.565-10.104-6.136-14.817l6.81-6.81c5.092-5.091,5.093-13.377-0.001-18.47l-12.171-12.171
			c-5.105-5.105-13.366-5.105-18.473-0.001l-6.81,6.809c-4.712-2.569-9.662-4.619-14.816-6.134v-9.632
			c0-7.202-5.857-13.062-13.062-13.062h-17.212c-7.2,0-13.061,5.859-13.061,13.062v9.632c-5.154,1.516-10.104,3.565-14.817,6.135
			l-6.809-6.809c-5.106-5.105-13.367-5.105-18.473-0.001l-9.503,9.504c-2.887-1-5.806-1.9-8.754-2.667v-19.145
			c0-8.507-6.921-15.427-15.427-15.427h-27.162c-8.506,0-15.427,6.921-15.427,15.427v19.138
			c-10.355,2.674-20.209,6.757-29.431,12.195l-13.531-13.535c-6.028-6.03-15.789-6.032-21.819,0l-19.205,19.205
			c-6.014,6.015-6.014,15.802,0,21.818l13.535,13.535c-5.439,9.224-9.521,19.076-12.194,29.431h-19.138
			c-8.507,0-15.428,6.921-15.428,15.427v27.16c0,8.507,6.921,15.428,15.428,15.428h19.137c2.674,10.355,6.757,20.208,12.195,29.43
			l-13.535,13.536c-6.014,6.015-6.014,15.802,0,21.818l19.205,19.205c6.015,6.015,15.802,6.016,21.819,0l13.534-13.535
			c9.222,5.438,19.076,9.521,29.432,12.195v19.137c0,8.507,6.921,15.428,15.427,15.428h27.162c8.506,0,15.427-6.921,15.427-15.428
			v-19.137c10.354-2.674,20.209-6.757,29.432-12.195l13.533,13.534c6.03,6.031,15.787,6.03,21.818,0.001l19.205-19.207
			c6.014-6.016,6.014-15.803,0-21.816l-13.541-13.542c1.346-2.292,2.609-4.639,3.797-7.028h14.384
			c7.201,0,13.062-5.859,13.062-13.062v-9.632c5.153-1.517,10.104-3.565,14.817-6.135l6.808,6.807
			c5.099,5.1,13.366,5.109,18.473,0.001l12.173-12.173c5.093-5.092,5.093-13.378,0-18.47l-6.81-6.81
			c2.568-4.713,4.618-9.664,6.135-14.817h9.632c7.202,0,13.063-5.858,13.063-13.06v-17.211
			C573.746,201.971,567.888,196.113,560.686,196.113z M451.646,360.879l-16.84-16.837c-3.043-3.043-7.816-3.493-11.377-1.076
			c-11.022,7.488-23.237,12.549-36.304,15.042c-4.227,0.806-7.286,4.503-7.286,8.806v23.808h-22.155v-23.808
			c0-4.304-3.059-8-7.284-8.806c-13.067-2.492-25.282-7.553-36.305-15.042c-3.559-2.417-8.335-1.968-11.378,1.076l-16.837,16.837
			l-15.667-15.667l16.838-16.839c3.042-3.042,3.494-7.818,1.076-11.377c-7.491-11.024-12.551-23.238-15.042-36.303
			c-0.806-4.228-4.503-7.287-8.806-7.287h-23.809V251.25h23.809c4.305,0,8-3.059,8.806-7.287
			c2.491-13.065,7.551-25.28,15.042-36.303c2.417-3.56,1.966-8.335-1.076-11.377l-16.838-16.837l15.667-15.667l16.837,16.838
			c3.044,3.043,7.821,3.494,11.378,1.076c11.023-7.49,23.236-12.551,36.305-15.042c4.227-0.806,7.284-4.502,7.284-8.806v-23.807
			h22.157v23.808c0,4.304,3.06,8,7.286,8.806c4.716,0.898,9.396,2.165,13.964,3.772c0.621,1.436,1.554,2.85,2.766,4.059l6.81,6.81
			c-2.455,4.504-4.602,9.603-6.136,14.817h-9.019c-8.515-3.45-17.504-5.197-26.749-5.197c-39.378,0-71.416,32.036-71.416,71.415
			c0,39.38,32.037,71.417,71.416,71.417c27.86,0,52.912-16.021,64.66-41.073c0.001-0.001,0.001-0.001,0.002-0.002
			c0.37-0.296,0.729-0.612,1.072-0.955l6.809-6.809c4.713,2.569,9.664,4.62,14.817,6.136v9.632c0,1.2,0.246,2.728,0.526,3.683
			c-2.109,4.412-4.539,8.649-7.251,12.643c-2.418,3.56-1.969,8.335,1.073,11.377l16.84,16.838L451.646,360.879z M403.857,279.543
			l10.604,10.606c-9.605,15.813-26.788,25.668-45.695,25.668c-29.492,0-53.484-23.995-53.484-53.487
			c0-29.493,23.993-53.486,53.484-53.486c4.454,0,8.824,0.554,13.074,1.627v15.916c0,7.202,5.858,13.063,13.063,13.063h9.633
			c1.517,5.154,3.564,10.104,6.136,14.817l-6.808,6.807C398.756,266.171,398.749,274.438,403.857,279.543z M555.816,221.518h-11.81
			c-4.304,0-7.999,3.058-8.806,7.284c-1.498,7.852-4.532,15.181-9.02,21.781c-2.418,3.56-1.968,8.335,1.074,11.378l8.349,8.348
			l-5.286,5.286l-8.348-8.348c-3.042-3.043-7.819-3.494-11.38-1.074c-6.599,4.486-13.928,7.521-21.78,9.019
			c-4.228,0.807-7.284,4.503-7.284,8.806v11.809h-7.478v-11.809c0-4.308-3.064-8-7.284-8.806
			c-7.852-1.498-15.179-4.533-21.779-9.019c-3.56-2.418-8.335-1.968-11.381,1.076l-8.348,8.348l-5.286-5.287l8.349-8.348
			c3.044-3.043,3.493-7.82,1.074-11.379c-4.485-6.598-7.52-13.925-9.02-21.781c-0.809-4.227-4.504-7.283-8.807-7.283h-11.81v-7.476
			h11.81c4.304,0,7.997-3.058,8.807-7.283c1.444-7.574,4.506-15.144,9.02-21.781c2.418-3.56,1.969-8.336-1.074-11.379l-8.349-8.348
			l5.286-5.286l8.349,8.348c3.045,3.043,7.821,3.494,11.38,1.075c6.599-4.485,13.926-7.52,21.779-9.019
			c4.228-0.807,7.284-4.504,7.284-8.806v-11.809h7.478v11.809c0,4.303,3.059,7.999,7.284,8.806
			c7.854,1.499,15.181,4.533,21.78,9.019c3.558,2.418,8.337,1.97,11.38-1.075l8.348-8.348l5.286,5.286l-8.349,8.348
			c-3.042,3.043-3.493,7.82-1.074,11.378c4.486,6.6,7.521,13.929,9.02,21.781c0.807,4.227,4.504,7.284,8.806,7.284h11.81V221.518z"
			/>
	</g>
</g>
<g>
	<g>
		<path fill="#2279AA" stroke="#29A0E2" stroke-width="6" stroke-miterlimit="10" d="M517.188,227.527
			c-4.421-2.221-9.813-0.438-12.033,3.988c-1.475,2.935-3.396,5.598-5.711,7.914c-19.225,19.223-52.266,5.538-52.266-21.648
			c0-27.171,33.029-40.882,52.263-21.649c0.91,0.911,1.802,1.932,2.648,3.034c3.015,3.927,8.641,4.666,12.57,1.648
			c3.926-3.016,4.663-8.645,1.646-12.571c-1.317-1.716-2.727-3.327-4.186-4.787c-30.527-30.526-82.871-8.727-82.871,34.326
			c0,43.118,52.391,64.803,82.871,34.325c3.673-3.673,6.72-7.894,9.056-12.545C523.398,235.136,521.612,229.749,517.188,227.527z"/>
	</g>
</g>
</svg>
